# Object "cone00":
# ComRec:
g Cone01
# No. points 170:
v 0.00100 0.00100 -0.00100
v 15.001 0.00100 -0.00100
v 14.4899 -3.88129 -0.00100
v 12.9914 -7.499 -0.00100
v 10.6076 -10.6056 -0.00100
v 7.501 -12.9894 -0.00100
v 3.88329 -14.4879 -0.00100
v 0.00100 -14.999 -0.00100
v -3.88129 -14.4879 -0.00100
v -7.499 -12.9894 -0.00100
v -10.6056 -10.6056 -0.00100
v -12.9894 -7.499 -0.00100
v -14.4879 -3.88128 -0.00100
v -14.999 0.00100 -0.00100
v -14.4879 3.88329 -0.00100
v -12.9894 7.501 -0.00100
v -10.6056 10.6076 -0.00100
v -7.499 12.9914 -0.00100
v -3.88128 14.4899 -0.00100
v 0.00100 15.001 -0.00100
v 3.88329 14.4899 -0.00100
v 7.501 12.9914 -0.00100
v 10.6076 10.6076 -0.00100
v 12.9914 7.501 -0.00100
v 14.4899 3.88328 -0.00100
v 0.00100 0.00100 -30.001
v 0.00100 0.00100 -30.001
v 0.00100 0.00100 -30.001
v 0.00100 0.00100 -30.001
v 0.00100 0.00100 -30.001
v 0.00100 0.00100 -30.001
v 0.00100 0.00100 -30.001
v 0.00100 0.00100 -30.001
v 0.00100 0.00100 -30.001
v 0.00100 0.00100 -30.001
v 0.00100 0.00100 -30.001
v 0.00100 0.00100 -30.001
v 0.00100 0.00100 -30.001
v 0.00100 0.00100 -30.001
v 0.00100 0.00100 -30.001
v 0.00100 0.00100 -30.001
v 0.00100 0.00100 -30.001
v 0.00100 0.00100 -30.001
v 0.00100 0.00100 -30.001
v 0.00100 0.00100 -30.001
v 0.00100 0.00100 -30.001
v 0.00100 0.00100 -30.001
v 0.00100 0.00100 -30.001
v 0.00100 0.00100 -30.001
v 0.00100 0.00100 -30.001
v 15.001 0.00100 -0.00100
v 15.001 0.00100 -0.00100
v 14.4899 -3.88129 -0.00100
v 14.4899 -3.88129 -0.00100
v 14.4899 -3.88129 -0.00100
v 12.9914 -7.499 -0.00100
v 12.9914 -7.499 -0.00100
v 12.9914 -7.499 -0.00100
v 10.6076 -10.6056 -0.00100
v 10.6076 -10.6056 -0.00100
v 10.6076 -10.6056 -0.00100
v 7.501 -12.9894 -0.00100
v 7.501 -12.9894 -0.00100
v 7.501 -12.9894 -0.00100
v 3.88329 -14.4879 -0.00100
v 3.88329 -14.4879 -0.00100
v 3.88329 -14.4879 -0.00100
v 0.00100 -14.999 -0.00100
v 0.00100 -14.999 -0.00100
v 0.00100 -14.999 -0.00100
v -3.88129 -14.4879 -0.00100
v -3.88129 -14.4879 -0.00100
v -3.88129 -14.4879 -0.00100
v -7.499 -12.9894 -0.00100
v -7.499 -12.9894 -0.00100
v -7.499 -12.9894 -0.00100
v -10.6056 -10.6056 -0.00100
v -10.6056 -10.6056 -0.00100
v -10.6056 -10.6056 -0.00100
v -12.9894 -7.499 -0.00100
v -12.9894 -7.499 -0.00100
v -12.9894 -7.499 -0.00100
v -14.4879 -3.88128 -0.00100
v -14.4879 -3.88128 -0.00100
v -14.4879 -3.88128 -0.00100
v -14.999 0.00100 -0.00100
v -14.999 0.00100 -0.00100
v -14.999 0.00100 -0.00100
v -14.4879 3.88329 -0.00100
v -14.4879 3.88329 -0.00100
v -14.4879 3.88329 -0.00100
v -12.9894 7.501 -0.00100
v -12.9894 7.501 -0.00100
v -12.9894 7.501 -0.00100
v -10.6056 10.6076 -0.00100
v -10.6056 10.6076 -0.00100
v -10.6056 10.6076 -0.00100
v -7.499 12.9914 -0.00100
v -7.499 12.9914 -0.00100
v -7.499 12.9914 -0.00100
v -3.88128 14.4899 -0.00100
v -3.88128 14.4899 -0.00100
v -3.88128 14.4899 -0.00100
v 0.00100 15.001 -0.00100
v 0.00100 15.001 -0.00100
v 0.00100 15.001 -0.00100
v 3.88329 14.4899 -0.00100
v 3.88329 14.4899 -0.00100
v 3.88329 14.4899 -0.00100
v 7.501 12.9914 -0.00100
v 7.501 12.9914 -0.00100
v 7.501 12.9914 -0.00100
v 10.6076 10.6076 -0.00100
v 10.6076 10.6076 -0.00100
v 10.6076 10.6076 -0.00100
v 12.9914 7.501 -0.00100
v 12.9914 7.501 -0.00100
v 12.9914 7.501 -0.00100
v 14.4899 3.88328 -0.00100
v 14.4899 3.88328 -0.00100
v 14.4899 3.88328 -0.00100
v 15.001 0.00100 -0.00100
v 0.00100 0.00100 -30.001
v 0.00100 0.00100 -30.001
v 0.00100 0.00100 -30.001
v 0.00100 0.00100 -30.001
v 0.00100 0.00100 -30.001
v 0.00100 0.00100 -30.001
v 0.00100 0.00100 -30.001
v 0.00100 0.00100 -30.001
v 0.00100 0.00100 -30.001
v 0.00100 0.00100 -30.001
v 0.00100 0.00100 -30.001
v 0.00100 0.00100 -30.001
v 0.00100 0.00100 -30.001
v 0.00100 0.00100 -30.001
v 0.00100 0.00100 -30.001
v 0.00100 0.00100 -30.001
v 0.00100 0.00100 -30.001
v 0.00100 0.00100 -30.001
v 0.00100 0.00100 -30.001
v 0.00100 0.00100 -30.001
v 0.00100 0.00100 -30.001
v 0.00100 0.00100 -30.001
v 0.00100 0.00100 -30.001
v 0.00100 0.00100 -30.001
v 0.00100 0.00100 -30.001
v 0.00100 0.00100 -30.001
v 0.00100 0.00100 -30.001
v 0.00100 0.00100 -30.001
v 0.00100 0.00100 -30.001
v 0.00100 0.00100 -30.001
v 0.00100 0.00100 -30.001
v 0.00100 0.00100 -30.001
v 0.00100 0.00100 -30.001
v 0.00100 0.00100 -30.001
v 0.00100 0.00100 -30.001
v 0.00100 0.00100 -30.001
v 0.00100 0.00100 -30.001
v 0.00100 0.00100 -30.001
v 0.00100 0.00100 -30.001
v 0.00100 0.00100 -30.001
v 0.00100 0.00100 -30.001
v 0.00100 0.00100 -30.001
v 0.00100 0.00100 -30.001
v 0.00100 0.00100 -30.001
v 0.00100 0.00100 -30.001
v 0.00100 0.00100 -30.001
v 0.00100 0.00100 -30.001
v 0.00100 0.00100 -30.001

# No. normals 337:
vn 0 0 1
vn 0 0 1
vn 0 0 1
vn 0 0 1
vn 0 0 1
vn 0 0 1
vn 0 0 1
vn 0 0 1
vn 0 0 1
vn 0 0 1
vn 0 0 1
vn 0 0 1
vn 0 0 1
vn 0 0 1
vn 0 0 1
vn 0 0 1
vn 0 0 1
vn 0 0 1
vn 0 0 1
vn 0 0 1
vn 0 0 1
vn 0 0 1
vn 0 0 1
vn 0 0 1
vn 0.88832 -0.11670 -0.44416
vn 0.88829 -0.11695 -0.44414
vn 0.82754 -0.34342 -0.44411
vn 0.82775 -0.34287 -0.44414
vn 0.71086 -0.54535 -0.44415
vn 0.71081 -0.54542 -0.44414
vn 0.54518 -0.71100 -0.44413
vn 0.54542 -0.71081 -0.44414
vn 0.34299 -0.82770 -0.44415
vn 0.34287 -0.82775 -0.44414
vn 0.11685 -0.88830 -0.44414
vn 0.11695 -0.88829 -0.44414
vn -0.11685 -0.88830 -0.44415
vn -0.11695 -0.88829 -0.44414
vn -0.34299 -0.82771 -0.44414
vn -0.34287 -0.82775 -0.44414
vn -0.54517 -0.71099 -0.44416
vn -0.54542 -0.71081 -0.44414
vn -0.71086 -0.54535 -0.44414
vn -0.71081 -0.54542 -0.44414
vn -0.82751 -0.34341 -0.44418
vn -0.82775 -0.34287 -0.44414
vn -0.88833 -0.11670 -0.44413
vn -0.88829 -0.11695 -0.44414
vn -0.88830 0.11685 -0.44415
vn -0.88829 0.11695 -0.44414
vn -0.82771 0.34299 -0.44414
vn -0.82775 0.34287 -0.44414
vn -0.71043 0.54594 -0.44411
vn -0.71081 0.54542 -0.44414
vn -0.54592 0.71041 -0.44418
vn -0.54542 0.71081 -0.44414
vn -0.34299 0.82770 -0.44415
vn -0.34287 0.82775 -0.44414
vn -0.11685 0.88830 -0.44414
vn -0.11695 0.88829 -0.44415
vn 0.11685 0.88830 -0.44415
vn 0.11695 0.88829 -0.44414
vn 0.34299 0.82771 -0.44414
vn 0.34287 0.82775 -0.44414
vn 0.54594 0.71043 -0.44411
vn 0.54542 0.71081 -0.44414
vn 0.71041 0.54592 -0.44418
vn 0.71081 0.54542 -0.44414
vn 0.82770 0.34299 -0.44415
vn 0.82775 0.34287 -0.44414
vn 0.88830 0.11685 -0.44414
vn 0.88829 0.11695 -0.44414
vn 0 0 -1
vn 0 0 -1
vn 0 0 -1
vn 0 0 -1
vn 0 0 -1
vn 0 0 -1
vn 0 0 -1
vn 0 0 -1
vn 0 0 -1
vn 0 0 -1
vn 0 0 -1
vn 0 0 -1
vn 0 0 -1
vn 0 0 -1
vn 0 0 -1
vn 0 0 -1
vn 0 0 -1
vn 0 0 -1
vn 0 0 -1
vn 0 0 -1
vn 0 0 -1
vn 0 0 -1
vn 0 0 -1
vn 0 0 -1
vn 0 0 1
vn 0 0 1
vn 0 0 1
vn 0 0 1
vn 0 0 1
vn 0 0 1
vn 0 0 1
vn 0 0 1
vn 0 0 1
vn 0 0 1
vn 0 0 1
vn 0 0 1
vn 0 0 1
vn 0 0 1
vn 0 0 1
vn 0 0 1
vn 0 0 1
vn 0 0 1
vn 0 0 1
vn 0 0 1
vn 0 0 1
vn 0 0 1
vn 0 0 1
vn 0 0 1
vn 0 0 1
vn 0.88832 -0.11670 -0.44416
vn 0.88829 0.11695 -0.44414
vn 0.88830 0.11685 -0.44414
vn 0.88832 -0.11670 -0.44416
vn 0.82754 -0.34342 -0.44411
vn 0.88829 -0.11695 -0.44414
vn 0.82754 -0.34342 -0.44411
vn 0.71086 -0.54535 -0.44415
vn 0.82775 -0.34287 -0.44414
vn 0.71086 -0.54535 -0.44415
vn 0.54518 -0.71100 -0.44413
vn 0.71081 -0.54542 -0.44414
vn 0.54518 -0.71100 -0.44413
vn 0.34299 -0.82770 -0.44415
vn 0.54542 -0.71081 -0.44414
vn 0.34299 -0.82770 -0.44415
vn 0.11685 -0.88830 -0.44414
vn 0.34287 -0.82775 -0.44414
vn 0.11685 -0.88830 -0.44414
vn -0.11685 -0.88830 -0.44415
vn 0.11695 -0.88829 -0.44414
vn -0.11685 -0.88830 -0.44415
vn -0.34299 -0.82771 -0.44414
vn -0.11695 -0.88829 -0.44414
vn -0.34299 -0.82771 -0.44414
vn -0.54517 -0.71099 -0.44416
vn -0.34287 -0.82775 -0.44414
vn -0.54517 -0.71099 -0.44416
vn -0.71086 -0.54535 -0.44414
vn -0.54542 -0.71081 -0.44414
vn -0.71086 -0.54535 -0.44414
vn -0.82751 -0.34341 -0.44418
vn -0.71081 -0.54542 -0.44414
vn -0.82751 -0.34341 -0.44418
vn -0.88833 -0.11670 -0.44413
vn -0.82775 -0.34287 -0.44414
vn -0.88833 -0.11670 -0.44413
vn -0.88830 0.11685 -0.44415
vn -0.88829 -0.11695 -0.44414
vn -0.88830 0.11685 -0.44415
vn -0.82771 0.34299 -0.44414
vn -0.88829 0.11695 -0.44414
vn -0.82771 0.34299 -0.44414
vn -0.71043 0.54594 -0.44411
vn -0.82775 0.34287 -0.44414
vn -0.71043 0.54594 -0.44411
vn -0.54592 0.71041 -0.44418
vn -0.71081 0.54542 -0.44414
vn -0.54592 0.71041 -0.44418
vn -0.34299 0.82770 -0.44415
vn -0.54542 0.71081 -0.44414
vn -0.34299 0.82770 -0.44415
vn -0.11685 0.88830 -0.44414
vn -0.34287 0.82775 -0.44414
vn -0.11685 0.88830 -0.44414
vn 0.11685 0.88830 -0.44415
vn -0.11695 0.88829 -0.44415
vn 0.11685 0.88830 -0.44415
vn 0.34299 0.82771 -0.44414
vn 0.11695 0.88829 -0.44414
vn 0.34299 0.82771 -0.44414
vn 0.54594 0.71043 -0.44411
vn 0.34287 0.82775 -0.44414
vn 0.54594 0.71043 -0.44411
vn 0.71041 0.54592 -0.44418
vn 0.54542 0.71081 -0.44414
vn 0.71041 0.54592 -0.44418
vn 0.82770 0.34299 -0.44415
vn 0.71081 0.54542 -0.44414
vn 0.82770 0.34299 -0.44415
vn 0.88830 0.11685 -0.44414
vn 0.82775 0.34287 -0.44414
vn 0 0 -1
vn 0 0 -1
vn 0 0 -1
vn 0 0 -1
vn 0 0 -1
vn 0 0 -1
vn 0 0 -1
vn 0 0 -1
vn 0 0 -1
vn 0 0 -1
vn 0 0 -1
vn 0 0 -1
vn 0 0 -1
vn 0 0 -1
vn 0 0 -1
vn 0 0 -1
vn 0 0 -1
vn 0 0 -1
vn 0 0 -1
vn 0 0 -1
vn 0 0 -1
vn 0 0 -1
vn 0 0 -1
vn 0 0 -1
vn 0.88832 -0.11670 -0.44416
vn 0.88829 -0.11695 -0.44414
vn 0.88829 -0.11695 -0.44414
vn 0.82754 -0.34342 -0.44411
vn 0.82775 -0.34287 -0.44414
vn 0.82775 -0.34287 -0.44414
vn 0.71086 -0.54535 -0.44415
vn 0.71081 -0.54542 -0.44414
vn 0.71081 -0.54542 -0.44414
vn 0.54518 -0.71100 -0.44413
vn 0.54542 -0.71081 -0.44414
vn 0.54542 -0.71081 -0.44414
vn 0.34299 -0.82770 -0.44415
vn 0.34287 -0.82775 -0.44414
vn 0.34287 -0.82775 -0.44414
vn 0.11685 -0.88830 -0.44414
vn 0.11695 -0.88829 -0.44414
vn 0.11695 -0.88829 -0.44414
vn -0.11685 -0.88830 -0.44415
vn -0.11695 -0.88829 -0.44414
vn -0.11695 -0.88829 -0.44414
vn -0.34299 -0.82771 -0.44414
vn -0.34287 -0.82775 -0.44414
vn -0.34287 -0.82775 -0.44414
vn -0.54517 -0.71099 -0.44416
vn -0.54542 -0.71081 -0.44414
vn -0.54542 -0.71081 -0.44414
vn -0.71086 -0.54535 -0.44414
vn -0.71081 -0.54542 -0.44414
vn -0.71081 -0.54542 -0.44414
vn -0.82751 -0.34341 -0.44418
vn -0.82775 -0.34287 -0.44414
vn -0.82775 -0.34287 -0.44414
vn -0.88833 -0.11670 -0.44413
vn -0.88829 -0.11695 -0.44414
vn -0.88829 -0.11695 -0.44414
vn -0.88830 0.11685 -0.44415
vn -0.88829 0.11695 -0.44414
vn -0.88829 0.11695 -0.44414
vn -0.82771 0.34299 -0.44414
vn -0.82775 0.34287 -0.44414
vn -0.82775 0.34287 -0.44414
vn -0.71043 0.54594 -0.44411
vn -0.71081 0.54542 -0.44414
vn -0.71081 0.54542 -0.44414
vn -0.54592 0.71041 -0.44418
vn -0.54542 0.71081 -0.44414
vn -0.54542 0.71081 -0.44414
vn -0.34299 0.82770 -0.44415
vn -0.34287 0.82775 -0.44414
vn -0.34287 0.82775 -0.44414
vn -0.11685 0.88830 -0.44414
vn -0.11695 0.88829 -0.44415
vn -0.11695 0.88829 -0.44415
vn 0.11685 0.88830 -0.44415
vn 0.11695 0.88829 -0.44414
vn 0.11695 0.88829 -0.44414
vn 0.34299 0.82771 -0.44414
vn 0.34287 0.82775 -0.44414
vn 0.34287 0.82775 -0.44414
vn 0.54594 0.71043 -0.44411
vn 0.54542 0.71081 -0.44414
vn 0.54542 0.71081 -0.44414
vn 0.71041 0.54592 -0.44418
vn 0.71081 0.54542 -0.44414
vn 0.71081 0.54542 -0.44414
vn 0.82770 0.34299 -0.44415
vn 0.82775 0.34287 -0.44414
vn 0.82775 0.34287 -0.44414
vn 0.88830 0.11685 -0.44414
vn 0.88829 0.11695 -0.44414
vn 0.88829 0.11695 -0.44414
vn 0 0 -1
vn 0 0 -1
vn 0 0 -1
vn 0 0 -1
vn 0 0 -1
vn 0 0 -1
vn 0 0 -1
vn 0 0 -1
vn 0 0 -1
vn 0 0 -1
vn 0 0 -1
vn 0 0 -1
vn 0 0 -1
vn 0 0 -1
vn 0 0 -1
vn 0 0 -1
vn 0 0 -1
vn 0 0 -1
vn 0 0 -1
vn 0 0 -1
vn 0 0 -1
vn 0 0 -1
vn 0 0 -1
vn 0 0 -1
vn 0 0 -1
vn 0 0 -1
vn 0 0 -1
vn 0 0 -1
vn 0 0 -1
vn 0 0 -1
vn 0 0 -1
vn 0 0 -1
vn 0 0 -1
vn 0 0 -1
vn 0 0 -1
vn 0 0 -1
vn 0 0 -1
vn 0 0 -1
vn 0 0 -1
vn 0 0 -1
vn 0 0 -1
vn 0 0 -1
vn 0 0 -1
vn 0 0 -1
vn 0 0 -1
vn 0 0 -1
vn 0 0 -1
vn 0 0 -1

# No. texture coordinates 170:
vt 0.50000 0.50000
vt 0.00050 0.50000
vt 0.01752 0.62928
vt 0.06742 0.74975
vt 0.14680 0.85320
vt 0.25025 0.93258
vt 0.37072 0.98248
vt 0.50000 0.9995
vt 0.62928 0.98248
vt 0.74975 0.93258
vt 0.85320 0.85320
vt 0.93258 0.74975
vt 0.98248 0.62928
vt 0.9995 0.50000
vt 0.98248 0.37072
vt 0.93258 0.25025
vt 0.85320 0.14680
vt 0.74975 0.06742
vt 0.62928 0.01752
vt 0.50000 0.00050
vt 0.37072 0.01752
vt 0.25025 0.06742
vt 0.14680 0.14680
vt 0.06742 0.25025
vt 0.01752 0.37072
vt 0.50000 0.999501
vt 0.50000 0.999501
vt 0.50000 0.999501
vt 0.50000 0.999501
vt 0.50000 0.999501
vt 0.50000 0.999501
vt 0.50000 0.999501
vt 0.50000 0.999501
vt 0.50000 0.999501
vt 0.50000 0.999501
vt 0.50000 0.999501
vt 0.50000 0.999501
vt 0.50000 0.999501
vt 0.50000 0.999501
vt 0.50000 0.999501
vt 0.50000 0.999501
vt 0.50000 0.999501
vt 0.50000 0.999501
vt 0.50000 0.999501
vt 0.50000 0.999501
vt 0.50000 0.999501
vt 0.50000 0.999501
vt 0.50000 0.999501
vt 0.50000 0.999501
vt 0.50000 0.50000
vt 0.50000 0.00050
vt 0.50000 0.00050
vt 0.62928 0.00050
vt 0.62928 0.00050
vt 0.62928 0.00050
vt 0.74975 0.00050
vt 0.74975 0.00050
vt 0.74975 0.00050
vt 0.85320 0.00050
vt 0.14680 0.00050
vt 0.14680 0.00050
vt 0.25025 0.00050
vt 0.25025 0.00050
vt 0.25025 0.00050
vt 0.37072 0.00050
vt 0.37072 0.00050
vt 0.37072 0.00050
vt 0.50000 0.00050
vt 0.50000 0.00050
vt 0.50000 0.00050
vt 0.62928 0.00050
vt 0.62928 0.00050
vt 0.62928 0.00050
vt 0.74975 0.00050
vt 0.74975 0.00050
vt 0.74975 0.00050
vt 0.85320 0.00050
vt 0.14680 0.00050
vt 0.14680 0.00050
vt 0.25025 0.00050
vt 0.25025 0.00050
vt 0.25025 0.00050
vt 0.37072 0.00050
vt 0.37072 0.00050
vt 0.37072 0.00050
vt 0.50000 0.00050
vt 0.50000 0.00050
vt 0.50000 0.00050
vt 0.62928 0.00050
vt 0.62928 0.00050
vt 0.62928 0.00050
vt 0.74975 0.00050
vt 0.74975 0.00050
vt 0.74975 0.00050
vt 0.85320 0.00050
vt 0.14680 0.00050
vt 0.14680 0.00050
vt 0.25025 0.00050
vt 0.25025 0.00050
vt 0.25025 0.00050
vt 0.37072 0.00050
vt 0.37072 0.00050
vt 0.37072 0.00050
vt 0.50000 0.00050
vt 0.50000 0.00050
vt 0.50000 0.00050
vt 0.62928 0.00050
vt 0.62928 0.00050
vt 0.62928 0.00050
vt 0.74975 0.00050
vt 0.74975 0.00050
vt 0.74975 0.00050
vt 0.85320 0.00050
vt 0.14680 0.00050
vt 0.14680 0.00050
vt 0.25025 0.00050
vt 0.25025 0.00050
vt 0.25025 0.00050
vt 0.37072 0.00050
vt 0.37072 0.00050
vt 0.37072 0.00050
vt 0.50000 0.00050
vt 0.50000 0.50000
vt 0.50000 0.50000
vt 0.50000 0.50000
vt 0.50000 0.50000
vt 0.50000 0.50000
vt 0.50000 0.50000
vt 0.50000 0.50000
vt 0.50000 0.50000
vt 0.50000 0.50000
vt 0.50000 0.50000
vt 0.50000 0.50000
vt 0.50000 0.50000
vt 0.50000 0.50000
vt 0.50000 0.50000
vt 0.50000 0.50000
vt 0.50000 0.50000
vt 0.50000 0.50000
vt 0.50000 0.50000
vt 0.50000 0.50000
vt 0.50000 0.50000
vt 0.50000 0.50000
vt 0.50000 0.50000
vt 0.50000 0.50000
vt 0.50000 0.50000
vt 0.50000 0.50000
vt 0.50000 0.50000
vt 0.50000 0.50000
vt 0.50000 0.50000
vt 0.50000 0.50000
vt 0.50000 0.50000
vt 0.50000 0.50000
vt 0.50000 0.50000
vt 0.50000 0.50000
vt 0.50000 0.50000
vt 0.50000 0.50000
vt 0.50000 0.50000
vt 0.50000 0.50000
vt 0.50000 0.50000
vt 0.50000 0.50000
vt 0.50000 0.50000
vt 0.50000 0.50000
vt 0.50000 0.50000
vt 0.50000 0.50000
vt 0.50000 0.50000
vt 0.50000 0.50000
vt 0.50000 0.50000
vt 0.50000 0.50000
vt 0.50000 0.50000

# No. faces 96:
f 1/1/97 3/3/99 2/2/98
f 1/1/97 4/4/100 3/3/99
f 1/1/97 5/5/101 4/4/100
f 1/1/97 6/6/102 5/5/101
f 1/1/97 7/7/103 6/6/102
f 1/1/97 8/8/104 7/7/103
f 1/1/97 9/9/105 8/8/104
f 1/1/97 10/10/106 9/9/105
f 1/1/97 11/11/107 10/10/106
f 1/1/97 12/12/108 11/11/107
f 1/1/97 13/13/109 12/12/108
f 1/1/97 14/14/110 13/13/109
f 1/1/97 15/15/111 14/14/110
f 1/1/97 16/16/112 15/15/111
f 1/1/97 17/17/113 16/16/112
f 1/1/97 18/18/114 17/17/113
f 1/1/97 19/19/115 18/18/114
f 1/1/97 20/20/116 19/19/115
f 1/1/97 21/21/117 20/20/116
f 1/1/97 22/22/118 21/21/117
f 1/1/97 23/23/119 22/22/118
f 1/1/97 24/24/120 23/23/119
f 1/1/97 25/25/121 24/24/120
f 1/1/97 2/2/98 25/25/121
f 51/51/218 27/27/125 26/26/122
f 52/52/219 53/53/220 27/27/127
f 54/54/221 28/28/128 27/27/126
f 55/55/222 56/56/223 28/28/130
f 57/57/224 29/29/131 28/28/129
f 58/58/225 59/59/226 29/29/133
f 60/60/227 30/30/134 29/29/132
f 61/61/228 62/62/229 30/30/136
f 63/63/230 31/31/137 30/30/135
f 64/64/231 65/65/232 31/31/139
f 66/66/233 32/32/140 31/31/138
f 67/67/234 68/68/235 32/32/142
f 69/69/236 33/33/143 32/32/141
f 70/70/237 71/71/238 33/33/145
f 72/72/239 34/34/146 33/33/144
f 73/73/240 74/74/241 34/34/148
f 75/75/242 35/35/149 34/34/147
f 76/76/243 77/77/244 35/35/151
f 78/78/245 36/36/152 35/35/150
f 79/79/246 80/80/247 36/36/154
f 81/81/248 37/37/155 36/36/153
f 82/82/249 83/83/250 37/37/157
f 84/84/251 38/38/158 37/37/156
f 85/85/252 86/86/253 38/38/160
f 87/87/254 39/39/161 38/38/159
f 88/88/255 89/89/256 39/39/163
f 90/90/257 40/40/164 39/39/162
f 91/91/258 92/92/259 40/40/166
f 93/93/260 41/41/167 40/40/165
f 94/94/261 95/95/262 41/41/169
f 96/96/263 42/42/170 41/41/168
f 97/97/264 98/98/265 42/42/172
f 99/99/266 43/43/173 42/42/171
f 100/100/267 101/101/268 43/43/175
f 102/102/269 44/44/176 43/43/174
f 103/103/270 104/104/271 44/44/178
f 105/105/272 45/45/179 44/44/177
f 106/106/273 107/107/274 45/45/181
f 108/108/275 46/46/182 45/45/180
f 109/109/276 110/110/277 46/46/184
f 111/111/278 47/47/185 46/46/183
f 112/112/279 113/113/280 47/47/187
f 114/114/281 48/48/188 47/47/186
f 115/115/282 116/116/283 48/48/190
f 117/117/284 49/49/191 48/48/189
f 118/118/285 119/119/286 49/49/193
f 120/120/287 26/26/124 49/49/192
f 121/121/288 122/122/289 26/26/123
f 50/50/194 123/123/290 124/124/291
f 50/50/217 125/125/292 126/126/293
f 50/50/216 127/127/294 128/128/295
f 50/50/215 129/129/296 130/130/297
f 50/50/214 131/131/298 132/132/299
f 50/50/213 133/133/300 134/134/301
f 50/50/212 135/135/302 136/136/303
f 50/50/211 137/137/304 138/138/305
f 50/50/210 139/139/306 140/140/307
f 50/50/209 141/141/308 142/142/309
f 50/50/208 143/143/310 144/144/311
f 50/50/207 145/145/312 146/146/313
f 50/50/206 147/147/314 148/148/315
f 50/50/205 149/149/316 150/150/317
f 50/50/204 151/151/318 152/152/319
f 50/50/203 153/153/320 154/154/321
f 50/50/202 155/155/322 156/156/323
f 50/50/201 157/157/324 158/158/325
f 50/50/200 159/159/326 160/160/327
f 50/50/199 161/161/328 162/162/329
f 50/50/198 163/163/330 164/164/331
f 50/50/197 165/165/332 166/166/333
f 50/50/196 167/167/334 168/168/335
f 50/50/195 169/169/336 170/170/337


