# Object "fuso":
# ComRec:
g Spindle01
# No. points 162:
v 0 9.6 0
v 0.01000 9.6 0
v 0.00924 9.6 -0.00383
v 0.00707 9.6 -0.00707
v 0.00383 9.6 -0.00924
v 0 9.6 -0.01000
v -0.00383 9.6 -0.00924
v -0.00707 9.6 -0.00707
v -0.00924 9.6 -0.00383
v -0.01000 9.6 0
v -0.00924 9.6 0.00383
v -0.00707 9.6 0.00707
v -0.00383 9.6 0.00924
v 0 9.6 0.01000
v 0.00383 9.6 0.00924
v 0.00707 9.6 0.00707
v 0.00924 9.6 0.00383
v 20 -0.20000 0
v 18.4776 -0.20000 -7.65367
v 14.1421 -0.20000 -14.1421
v 7.65367 -0.20000 -18.4776
v 0 -0.20000 -20
v -7.65367 -0.20000 -18.4776
v -14.1421 -0.20000 -14.1421
v -18.4776 -0.20000 -7.65367
v -20 -0.20000 0
v -18.4776 -0.20000 7.65367
v -14.1421 -0.20000 14.1421
v -7.65367 -0.20000 18.4776
v 0 -0.20000 20
v 7.65367 -0.20000 18.4776
v 14.1421 -0.20000 14.1421
v 18.4776 -0.20000 7.65367
v 20 -0.20000 0
v 18.4776 -0.20000 -7.65367
v 14.1421 -0.20000 -14.1421
v 7.65367 -0.20000 -18.4776
v 0 -0.20000 -20
v -7.65367 -0.20000 -18.4776
v -14.1421 -0.20000 -14.1421
v -18.4776 -0.20000 -7.65367
v -20 -0.20000 0
v -18.4776 -0.20000 7.65367
v -14.1421 -0.20000 14.1421
v -7.65367 -0.20000 18.4776
v 0 -0.20000 20
v 7.65367 -0.20000 18.4776
v 14.1421 -0.20000 14.1421
v 18.4776 -0.20000 7.65367
v 0.01000 -10 0
v 0.00924 -10 -0.00383
v 0.00707 -10 -0.00707
v 0.00383 -10 -0.00924
v 0 -10 -0.01000
v -0.00383 -10 -0.00924
v -0.00707 -10 -0.00707
v -0.00924 -10 -0.00383
v -0.01000 -10 0
v -0.00924 -10 0.00383
v -0.00707 -10 0.00707
v -0.00383 -10 0.00924
v 0 -10 0.01000
v 0.00383 -10 0.00924
v 0.00707 -10 0.00707
v 0.00924 -10 0.00383
v 0 -10 0
v 20 -0.20000 0
v 20 -0.20000 0
v 18.4776 -0.20000 -7.65367
v 18.4776 -0.20000 -7.65367
v 18.4776 -0.20000 -7.65367
v 14.1421 -0.20000 -14.1421
v 14.1421 -0.20000 -14.1421
v 14.1421 -0.20000 -14.1421
v 7.65367 -0.20000 -18.4776
v 7.65367 -0.20000 -18.4776
v 7.65367 -0.20000 -18.4776
v 0 -0.20000 -20
v 0 -0.20000 -20
v 0 -0.20000 -20
v -7.65367 -0.20000 -18.4776
v -7.65367 -0.20000 -18.4776
v -7.65367 -0.20000 -18.4776
v -14.1421 -0.20000 -14.1421
v -14.1421 -0.20000 -14.1421
v -14.1421 -0.20000 -14.1421
v -18.4776 -0.20000 -7.65367
v -18.4776 -0.20000 -7.65367
v -18.4776 -0.20000 -7.65367
v -20 -0.20000 0
v -20 -0.20000 0
v -20 -0.20000 0
v -18.4776 -0.20000 7.65367
v -18.4776 -0.20000 7.65367
v -18.4776 -0.20000 7.65367
v -14.1421 -0.20000 14.1421
v -14.1421 -0.20000 14.1421
v -14.1421 -0.20000 14.1421
v -7.65367 -0.20000 18.4776
v -7.65367 -0.20000 18.4776
v -7.65367 -0.20000 18.4776
v 0 -0.20000 20
v 0 -0.20000 20
v 0 -0.20000 20
v 7.65367 -0.20000 18.4776
v 7.65367 -0.20000 18.4776
v 7.65367 -0.20000 18.4776
v 14.1421 -0.20000 14.1421
v 14.1421 -0.20000 14.1421
v 14.1421 -0.20000 14.1421
v 18.4776 -0.20000 7.65367
v 18.4776 -0.20000 7.65367
v 18.4776 -0.20000 7.65367
v 20 -0.20000 0
v 20 -0.20000 0
v 20 -0.20000 0
v 18.4776 -0.20000 -7.65367
v 18.4776 -0.20000 -7.65367
v 18.4776 -0.20000 -7.65367
v 14.1421 -0.20000 -14.1421
v 14.1421 -0.20000 -14.1421
v 14.1421 -0.20000 -14.1421
v 7.65367 -0.20000 -18.4776
v 7.65367 -0.20000 -18.4776
v 7.65367 -0.20000 -18.4776
v 0 -0.20000 -20
v 0 -0.20000 -20
v 0 -0.20000 -20
v -7.65367 -0.20000 -18.4776
v -7.65367 -0.20000 -18.4776
v -7.65367 -0.20000 -18.4776
v -14.1421 -0.20000 -14.1421
v -14.1421 -0.20000 -14.1421
v -14.1421 -0.20000 -14.1421
v -18.4776 -0.20000 -7.65367
v -18.4776 -0.20000 -7.65367
v -18.4776 -0.20000 -7.65367
v -20 -0.20000 0
v -20 -0.20000 0
v -20 -0.20000 0
v -18.4776 -0.20000 7.65367
v -18.4776 -0.20000 7.65367
v -18.4776 -0.20000 7.65367
v -14.1421 -0.20000 14.1421
v -14.1421 -0.20000 14.1421
v -14.1421 -0.20000 14.1421
v -7.65367 -0.20000 18.4776
v -7.65367 -0.20000 18.4776
v -7.65367 -0.20000 18.4776
v 0 -0.20000 20
v 0 -0.20000 20
v 0 -0.20000 20
v 7.65367 -0.20000 18.4776
v 7.65367 -0.20000 18.4776
v 7.65367 -0.20000 18.4776
v 14.1421 -0.20000 14.1421
v 14.1421 -0.20000 14.1421
v 14.1421 -0.20000 14.1421
v 18.4776 -0.20000 7.65367
v 18.4776 -0.20000 7.65367
v 18.4776 -0.20000 7.65367
v 20 -0.20000 0

# No. normals 338:
vn 0 1 0
vn 0 1 0
vn 0 1 0
vn 0 1 0
vn 0 1 0
vn 0 1 0
vn 0 1 0
vn 0 1 0
vn 0 1 0
vn 0 1 0
vn 0 1 0
vn 0 1 0
vn 0 1 0
vn 0 1 0
vn 0 1 0
vn 0 1 0
vn 0.43851 0.89448 -0.08723
vn 0.43854 0.89448 -0.08717
vn 0.37176 0.89448 -0.24840
vn 0.37168 0.89449 -0.24848
vn 0.24840 0.89448 -0.37176
vn 0.24842 0.89448 -0.37174
vn 0.08723 0.89448 -0.43851
vn 0.08713 0.89449 -0.43852
vn -0.08723 0.89448 -0.43851
vn -0.08717 0.89448 -0.43854
vn -0.24840 0.89448 -0.37175
vn -0.24836 0.89448 -0.37179
vn -0.37176 0.89448 -0.24840
vn -0.37176 0.89448 -0.24839
vn -0.43851 0.89448 -0.08723
vn -0.43852 0.89449 -0.08713
vn -0.43851 0.89448 0.08723
vn -0.43854 0.89448 0.08716
vn -0.37176 0.89448 0.24840
vn -0.37179 0.89448 0.24836
vn -0.24840 0.89448 0.37176
vn -0.24850 0.89447 0.37171
vn -0.08723 0.89448 0.43851
vn -0.08713 0.89449 0.43852
vn 0.08723 0.89448 0.43851
vn 0.08717 0.89448 0.43854
vn 0.24840 0.89448 0.37175
vn 0.24827 0.89447 0.37188
vn 0.37176 0.89448 0.24840
vn 0.37174 0.89448 0.24842
vn 0.43851 0.89448 0.08723
vn 0.43852 0.89449 0.08713
vn 1 0 0
vn 1 0 0
vn 1 0 0
vn 1 0 0
vn 1 0 0
vn 1 0 0
vn 1 0 0
vn 1 0 0
vn 1 0 0
vn 1 0 0
vn 1 0 0
vn 1 0 0
vn 1 0 0
vn 1 0 0
vn 1 0 0
vn 1 0 0
vn 1 0 0
vn 1 0 0
vn 1 0 0
vn 1 0 0
vn 1 0 0
vn 1 0 0
vn 1 0 0
vn 1 0 0
vn 1 0 0
vn 1 0 0
vn 1 0 0
vn 1 0 0
vn 1 0 0
vn 1 0 0
vn 1 0 0
vn 1 0 0
vn 0.43851 -0.89448 -0.08723
vn 0.43851 -0.89448 -0.08723
vn 0.37176 -0.89448 -0.24840
vn 0.37176 -0.89448 -0.24840
vn 0.24840 -0.89448 -0.37176
vn 0.24840 -0.89448 -0.37176
vn 0.08723 -0.89448 -0.43851
vn 0.08723 -0.89448 -0.43851
vn -0.08723 -0.89448 -0.43851
vn -0.08723 -0.89448 -0.43851
vn -0.24840 -0.89448 -0.37176
vn -0.24840 -0.89448 -0.37175
vn -0.37176 -0.89448 -0.24840
vn -0.37176 -0.89448 -0.24840
vn -0.43851 -0.89448 -0.08723
vn -0.43851 -0.89448 -0.08723
vn -0.43851 -0.89448 0.08723
vn -0.43851 -0.89448 0.08723
vn -0.37176 -0.89448 0.24840
vn -0.37175 -0.89448 0.24840
vn -0.24840 -0.89448 0.37176
vn -0.24840 -0.89448 0.37176
vn -0.08723 -0.89448 0.43852
vn -0.08723 -0.89448 0.43851
vn 0.08723 -0.89448 0.43851
vn 0.08723 -0.89448 0.43851
vn 0.24840 -0.89448 0.37175
vn 0.24840 -0.89448 0.37175
vn 0.37176 -0.89448 0.24840
vn 0.37176 -0.89448 0.24840
vn 0.43851 -0.89448 0.08723
vn 0.43851 -0.89448 0.08723
vn 0 -1 0
vn 0 -1 0
vn 0 -1 0
vn 0 -1 0
vn 0 -1 0
vn 0 -1 0
vn 0 -1 0
vn 0 -1 0
vn 0 -1 0
vn 0 -1 0
vn 0 -1 0
vn 0 -1 0
vn 0 -1 0
vn 0 -1 0
vn 0 -1 0
vn 0 -1 0
vn 0 1 0
vn 0.27039 0.96258 -0.01793
vn 0.24293 0.96259 -0.12004
vn 0.17850 0.96258 -0.20388
vn 0.08689 0.96259 -0.25666
vn -0.01793 0.96258 -0.27039
vn -0.12002 0.96259 -0.24295
vn -0.20386 0.96259 -0.17852
vn -0.25666 0.96259 -0.08689
vn -0.27039 0.96258 0.01793
vn -0.24295 0.96259 0.12001
vn -0.17854 0.96258 0.20385
vn -0.08691 0.96259 0.25665
vn 0.01793 0.96258 0.27039
vn 0.12000 0.96258 0.24297
vn 0.20384 0.96259 0.17854
vn 0.25666 0.96259 0.08689
vn 0.44001 0.89752 0.02914
vn 0.41768 0.89752 -0.14141
vn 0.33174 0.89752 -0.29053
vn 0.19534 0.89752 -0.39534
vn 0.02914 0.89752 -0.44001
vn -0.14141 0.89752 -0.41768
vn -0.29049 0.89752 -0.33177
vn -0.39535 0.89752 -0.19533
vn -0.44001 0.89752 -0.02914
vn -0.41769 0.89752 0.14141
vn -0.33177 0.89752 0.29049
vn -0.19537 0.89752 0.39533
vn -0.02914 0.89752 0.44001
vn 0.14141 0.89752 0.41768
vn 0.29046 0.89752 0.33180
vn 0.39534 0.89752 0.19534
vn 1 0 0
vn 1 0 0
vn 1 0 0
vn 1 0 0
vn 1 0 0
vn 1 0 0
vn 1 0 0
vn 1 0 0
vn 1 0 0
vn 1 0 0
vn 1 0 0
vn 1 0 0
vn 1 0 0
vn 1 0 0
vn 1 0 0
vn 1 0 0
vn 1 0 0
vn 1 0 0
vn 1 0 0
vn 1 0 0
vn 1 0 0
vn 1 0 0
vn 1 0 0
vn 1 0 0
vn 1 0 0
vn 1 0 0
vn 1 0 0
vn 1 0 0
vn 1 0 0
vn 1 0 0
vn 1 0 0
vn 1 0 0
vn 1 0 0
vn 1 0 0
vn 1 0 0
vn 1 0 0
vn 1 0 0
vn 1 0 0
vn 1 0 0
vn 1 0 0
vn 1 0 0
vn 1 0 0
vn 1 0 0
vn 1 0 0
vn 1 0 0
vn 1 0 0
vn 1 0 0
vn 1 0 0
vn 0.22551 -0.97424 0
vn 0.43851 -0.89448 0.08723
vn 0.20834 -0.97424 -0.08630
vn 0.43851 -0.89448 -0.08723
vn 0.15946 -0.97424 -0.15946
vn 0.37176 -0.89448 -0.24840
vn 0.08630 -0.97424 -0.20834
vn 0.24840 -0.89448 -0.37176
vn 0 -0.97424 -0.22551
vn 0.08723 -0.89448 -0.43851
vn -0.08630 -0.97424 -0.20834
vn -0.08723 -0.89448 -0.43851
vn -0.15946 -0.97424 -0.15946
vn -0.24840 -0.89448 -0.37175
vn -0.20834 -0.97424 -0.08630
vn -0.37176 -0.89448 -0.24840
vn -0.22551 -0.97424 0
vn -0.43851 -0.89448 -0.08723
vn -0.20834 -0.97424 0.08630
vn -0.43851 -0.89448 0.08723
vn -0.15946 -0.97424 0.15946
vn -0.37175 -0.89448 0.24840
vn -0.08630 -0.97424 0.20834
vn -0.24840 -0.89448 0.37176
vn 0 -0.97424 0.22551
vn -0.08723 -0.89448 0.43851
vn 0.08630 -0.97424 0.20834
vn 0.08723 -0.89448 0.43851
vn 0.15946 -0.97424 0.15946
vn 0.24840 -0.89448 0.37175
vn 0.20834 -0.97424 0.08630
vn 0.37176 -0.89448 0.24840
vn 0 -1 0
vn 1 0 0
vn 1 0 0
vn 1 0 0
vn 1 0 0
vn 1 0 0
vn 1 0 0
vn 1 0 0
vn 1 0 0
vn 1 0 0
vn 1 0 0
vn 1 0 0
vn 1 0 0
vn 1 0 0
vn 1 0 0
vn 1 0 0
vn 1 0 0
vn 1 0 0
vn 1 0 0
vn 1 0 0
vn 1 0 0
vn 1 0 0
vn 1 0 0
vn 1 0 0
vn 1 0 0
vn 1 0 0
vn 1 0 0
vn 1 0 0
vn 1 0 0
vn 1 0 0
vn 1 0 0
vn 1 0 0
vn 1 0 0
vn 1 0 0
vn 1 0 0
vn 1 0 0
vn 1 0 0
vn 1 0 0
vn 1 0 0
vn 1 0 0
vn 1 0 0
vn 1 0 0
vn 1 0 0
vn 1 0 0
vn 1 0 0
vn 1 0 0
vn 1 0 0
vn 1 0 0
vn 1 0 0
vn 0.43851 -0.89448 -0.08723
vn 0.43851 -0.89448 -0.08723
vn 0.43851 -0.89448 -0.08723
vn 0.37176 -0.89448 -0.24840
vn 0.37176 -0.89448 -0.24840
vn 0.37176 -0.89448 -0.24840
vn 0.24840 -0.89448 -0.37176
vn 0.24840 -0.89448 -0.37176
vn 0.24840 -0.89448 -0.37176
vn 0.08723 -0.89448 -0.43851
vn 0.08723 -0.89448 -0.43851
vn 0.08723 -0.89448 -0.43851
vn -0.08723 -0.89448 -0.43851
vn -0.08723 -0.89448 -0.43851
vn -0.08723 -0.89448 -0.43851
vn -0.24840 -0.89448 -0.37176
vn -0.24840 -0.89448 -0.37175
vn -0.24840 -0.89448 -0.37175
vn -0.37176 -0.89448 -0.24840
vn -0.37176 -0.89448 -0.24840
vn -0.37176 -0.89448 -0.24840
vn -0.43851 -0.89448 -0.08723
vn -0.43851 -0.89448 -0.08723
vn -0.43851 -0.89448 -0.08723
vn -0.43851 -0.89448 0.08723
vn -0.43851 -0.89448 0.08723
vn -0.43851 -0.89448 0.08723
vn -0.37176 -0.89448 0.24840
vn -0.37175 -0.89448 0.24840
vn -0.37175 -0.89448 0.24840
vn -0.24840 -0.89448 0.37176
vn -0.24840 -0.89448 0.37176
vn -0.24840 -0.89448 0.37176
vn -0.08723 -0.89448 0.43852
vn -0.08723 -0.89448 0.43851
vn -0.08723 -0.89448 0.43851
vn 0.08723 -0.89448 0.43851
vn 0.08723 -0.89448 0.43851
vn 0.08723 -0.89448 0.43851
vn 0.24840 -0.89448 0.37175
vn 0.24840 -0.89448 0.37175
vn 0.24840 -0.89448 0.37175
vn 0.37176 -0.89448 0.24840
vn 0.37176 -0.89448 0.24840
vn 0.37176 -0.89448 0.24840
vn 0.43851 -0.89448 0.08723
vn 0.43851 -0.89448 0.08723
vn 0.43851 -0.89448 0.08723

# No. texture coordinates 162:
vt 0.50000 0.50000
vt 0.50025 0.50000
vt 0.50023 0.50010
vt 0.50018 0.50018
vt 0.50010 0.50023
vt 0.50000 0.50025
vt 0.49990 0.50023
vt 0.49982 0.50018
vt 0.49977 0.50010
vt 0.49975 0.50000
vt 0.49977 0.49990
vt 0.49982 0.49982
vt 0.49990 0.49977
vt 0.50000 0.49975
vt 0.50010 0.49977
vt 0.50018 0.49982
vt 0.50023 0.49990
vt 0.999501 0.50000
vt 0.96148 0.69115
vt 0.85320 0.85320
vt 0.69115 0.96148
vt 0.50000 0.999501
vt 0.30885 0.96148
vt 0.14680 0.85320
vt 0.03852 0.69115
vt 0.00050 0.50000
vt 0.03852 0.30885
vt 0.14680 0.14680
vt 0.30885 0.03852
vt 0.50000 0.00050
vt 0.69115 0.03852
vt 0.85320 0.14680
vt 0.96148 0.30885
vt 0.50000 0.50000
vt 0.69115 0.50000
vt 0.85320 0.50000
vt 0.96148 0.50000
vt 0.999501 0.50000
vt 0.96148 0.50000
vt 0.85320 0.50000
vt 0.69115 0.50000
vt 0.50000 0.50000
vt 0.30885 0.50000
vt 0.14680 0.50000
vt 0.03852 0.50000
vt 0.00050 0.50000
vt 0.03852 0.50000
vt 0.14680 0.50000
vt 0.30885 0.50000
vt 0.49975 0.50000
vt 0.49977 0.50010
vt 0.49982 0.50018
vt 0.49990 0.50023
vt 0.50000 0.50025
vt 0.50010 0.50023
vt 0.50018 0.50018
vt 0.50023 0.50010
vt 0.50025 0.50000
vt 0.50023 0.49990
vt 0.50018 0.49982
vt 0.50010 0.49977
vt 0.50000 0.49975
vt 0.49990 0.49977
vt 0.49982 0.49982
vt 0.49977 0.49990
vt 0.50000 0.50000
vt 0.50000 0.50000
vt 0.50000 0.50000
vt 0.69115 0.50000
vt 0.69115 0.50000
vt 0.69115 0.50000
vt 0.85320 0.50000
vt 0.85320 0.50000
vt 0.85320 0.50000
vt 0.96148 0.50000
vt 0.96148 0.50000
vt 0.96148 0.50000
vt 0.999501 0.50000
vt 0.999501 0.50000
vt 0.999501 0.50000
vt 0.96148 0.50000
vt 0.96148 0.50000
vt 0.96148 0.50000
vt 0.85320 0.50000
vt 0.85320 0.50000
vt 0.85320 0.50000
vt 0.69115 0.50000
vt 0.69115 0.50000
vt 0.69115 0.50000
vt 0.50000 0.50000
vt 0.50000 0.50000
vt 0.50000 0.50000
vt 0.30885 0.50000
vt 0.30885 0.50000
vt 0.30885 0.50000
vt 0.14680 0.50000
vt 0.14680 0.50000
vt 0.14680 0.50000
vt 0.03852 0.50000
vt 0.03852 0.50000
vt 0.03852 0.50000
vt 0.00050 0.50000
vt 0.00050 0.50000
vt 0.00050 0.50000
vt 0.03852 0.50000
vt 0.03852 0.50000
vt 0.03852 0.50000
vt 0.14680 0.50000
vt 0.14680 0.50000
vt 0.14680 0.50000
vt 0.30885 0.50000
vt 0.30885 0.50000
vt 0.30885 0.50000
vt 0.50000 0.50000
vt 0.00050 0.50000
vt 0.00050 0.50000
vt 0.03852 0.69115
vt 0.03852 0.69115
vt 0.03852 0.69115
vt 0.14680 0.85320
vt 0.14680 0.85320
vt 0.14680 0.85320
vt 0.30885 0.96148
vt 0.30885 0.96148
vt 0.30885 0.96148
vt 0.50000 0.999501
vt 0.50000 0.999501
vt 0.50000 0.999501
vt 0.69115 0.96148
vt 0.69115 0.96148
vt 0.69115 0.96148
vt 0.85320 0.85320
vt 0.85320 0.85320
vt 0.85320 0.85320
vt 0.96148 0.69115
vt 0.96148 0.69115
vt 0.96148 0.69115
vt 0.999501 0.50000
vt 0.999501 0.50000
vt 0.999501 0.50000
vt 0.96148 0.30885
vt 0.96148 0.30885
vt 0.96148 0.30885
vt 0.85320 0.14680
vt 0.85320 0.14680
vt 0.85320 0.14680
vt 0.69115 0.03852
vt 0.69115 0.03852
vt 0.69115 0.03852
vt 0.50000 0.00050
vt 0.50000 0.00050
vt 0.50000 0.00050
vt 0.30885 0.03852
vt 0.30885 0.03852
vt 0.30885 0.03852
vt 0.14680 0.14680
vt 0.14680 0.14680
vt 0.14680 0.14680
vt 0.03852 0.30885
vt 0.03852 0.30885
vt 0.03852 0.30885
vt 0.00050 0.50000

# No. faces 128:
f 1/1/129 2/2/130 3/3/131
f 1/1/129 3/3/131 4/4/132
f 1/1/129 4/4/132 5/5/133
f 1/1/129 5/5/133 6/6/134
f 1/1/129 6/6/134 7/7/135
f 1/1/129 7/7/135 8/8/136
f 1/1/129 8/8/136 9/9/137
f 1/1/129 9/9/137 10/10/138
f 1/1/129 10/10/138 11/11/139
f 1/1/129 11/11/139 12/12/140
f 1/1/129 12/12/140 13/13/141
f 1/1/129 13/13/141 14/14/142
f 1/1/129 14/14/142 15/15/143
f 1/1/129 15/15/143 16/16/144
f 1/1/129 16/16/144 17/17/145
f 1/1/129 17/17/145 2/2/130
f 2/2/130 18/18/146 19/19/147
f 2/2/130 19/19/147 3/3/131
f 3/3/131 19/19/147 20/20/148
f 3/3/131 20/20/148 4/4/132
f 4/4/132 20/20/148 21/21/149
f 4/4/132 21/21/149 5/5/133
f 5/5/133 21/21/149 22/22/150
f 5/5/133 22/22/150 6/6/134
f 6/6/134 22/22/150 23/23/151
f 6/6/134 23/23/151 7/7/135
f 7/7/135 23/23/151 24/24/152
f 7/7/135 24/24/152 8/8/136
f 8/8/136 24/24/152 25/25/153
f 8/8/136 25/25/153 9/9/137
f 9/9/137 25/25/153 26/26/154
f 9/9/137 26/26/154 10/10/138
f 10/10/138 26/26/154 27/27/155
f 10/10/138 27/27/155 11/11/139
f 11/11/139 27/27/155 28/28/156
f 11/11/139 28/28/156 12/12/140
f 12/12/140 28/28/156 29/29/157
f 12/12/140 29/29/157 13/13/141
f 13/13/141 29/29/157 30/30/158
f 13/13/141 30/30/158 14/14/142
f 14/14/142 30/30/158 31/31/159
f 14/14/142 31/31/159 15/15/143
f 15/15/143 31/31/159 32/32/160
f 15/15/143 32/32/160 16/16/144
f 16/16/144 32/32/160 33/33/161
f 16/16/144 33/33/161 17/17/145
f 17/17/145 33/33/161 18/18/146
f 17/17/145 18/18/146 2/2/130
f 67/67/243 34/34/162 35/35/165
f 68/68/244 35/35/167 69/69/245
f 70/70/246 35/35/166 36/36/168
f 71/71/247 36/36/170 72/72/248
f 73/73/249 36/36/169 37/37/171
f 74/74/250 37/37/173 75/75/251
f 76/76/252 37/37/172 38/38/174
f 77/77/253 38/38/176 78/78/254
f 79/79/255 38/38/175 39/39/177
f 80/80/256 39/39/179 81/81/257
f 82/82/258 39/39/178 40/40/180
f 83/83/259 40/40/182 84/84/260
f 85/85/261 40/40/181 41/41/183
f 86/86/262 41/41/185 87/87/263
f 88/88/264 41/41/184 42/42/186
f 89/89/265 42/42/188 90/90/266
f 91/91/267 42/42/187 43/43/189
f 92/92/268 43/43/191 93/93/269
f 94/94/270 43/43/190 44/44/192
f 95/95/271 44/44/194 96/96/272
f 97/97/273 44/44/193 45/45/195
f 98/98/274 45/45/197 99/99/275
f 100/100/276 45/45/196 46/46/198
f 101/101/277 46/46/200 102/102/278
f 103/103/279 46/46/199 47/47/201
f 104/104/280 47/47/203 105/105/281
f 106/106/282 47/47/202 48/48/204
f 107/107/283 48/48/206 108/108/284
f 109/109/285 48/48/205 49/49/207
f 110/110/286 49/49/209 111/111/287
f 112/112/288 49/49/208 34/34/164
f 113/113/289 34/34/163 114/114/290
f 115/115/291 50/50/210 51/51/212
f 116/116/292 51/51/213 117/117/293
f 118/118/294 51/51/212 52/52/214
f 119/119/295 52/52/215 120/120/296
f 121/121/297 52/52/214 53/53/216
f 122/122/298 53/53/217 123/123/299
f 124/124/300 53/53/216 54/54/218
f 125/125/301 54/54/219 126/126/302
f 127/127/303 54/54/218 55/55/220
f 128/128/304 55/55/221 129/129/305
f 130/130/306 55/55/220 56/56/222
f 131/131/307 56/56/223 132/132/308
f 133/133/309 56/56/222 57/57/224
f 134/134/310 57/57/225 135/135/311
f 136/136/312 57/57/224 58/58/226
f 137/137/313 58/58/227 138/138/314
f 139/139/315 58/58/226 59/59/228
f 140/140/316 59/59/229 141/141/317
f 142/142/318 59/59/228 60/60/230
f 143/143/319 60/60/231 144/144/320
f 145/145/321 60/60/230 61/61/232
f 146/146/322 61/61/233 147/147/323
f 148/148/324 61/61/232 62/62/234
f 149/149/325 62/62/235 150/150/326
f 151/151/327 62/62/234 63/63/236
f 152/152/328 63/63/237 153/153/329
f 154/154/330 63/63/236 64/64/238
f 155/155/331 64/64/239 156/156/332
f 157/157/333 64/64/238 65/65/240
f 158/158/334 65/65/241 159/159/335
f 160/160/336 65/65/240 50/50/210
f 161/161/337 50/50/211 162/162/338
f 50/50/210 66/66/242 51/51/212
f 51/51/212 66/66/242 52/52/214
f 52/52/214 66/66/242 53/53/216
f 53/53/216 66/66/242 54/54/218
f 54/54/218 66/66/242 55/55/220
f 55/55/220 66/66/242 56/56/222
f 56/56/222 66/66/242 57/57/224
f 57/57/224 66/66/242 58/58/226
f 58/58/226 66/66/242 59/59/228
f 59/59/228 66/66/242 60/60/230
f 60/60/230 66/66/242 61/61/232
f 61/61/232 66/66/242 62/62/234
f 62/62/234 66/66/242 63/63/236
f 63/63/236 66/66/242 64/64/238
f 64/64/238 66/66/242 65/65/240
f 65/65/240 66/66/242 50/50/210


