# Object "tubo":
# ComRec:
g Tube01
# No. points 304:
v 0 -15 15
v 0 -15 -15
v 0 -10 -15
v 0 -10 15
v 5.1303 -14.0954 15
v 5.1303 -14.0954 -15
v 3.4202 -9.39692 -15
v 3.4202 -9.39693 15
v 9.64181 -11.4907 15
v 9.64181 -11.4907 -15
v 6.42788 -7.66044 -15
v 6.42788 -7.66044 15
v 12.9904 -7.5 15
v 12.9904 -7.5 -15
v 8.66025 -5 -15
v 8.66025 -5 15
v 14.7721 -2.60472 15
v 14.7721 -2.60472 -15
v 9.84808 -1.73648 -15
v 9.84808 -1.73648 15
v 14.7721 2.60472 15
v 14.7721 2.60473 -15
v 9.84808 1.73648 -15
v 9.84808 1.73648 15
v 12.9904 7.5 15
v 12.9904 7.5 -15
v 8.66025 5 -15
v 8.66025 5 15
v 9.64181 11.4907 15
v 9.64181 11.4907 -15
v 6.42788 7.66045 -15
v 6.42788 7.66045 15
v 5.1303 14.0954 15
v 5.1303 14.0954 -15
v 3.4202 9.39693 -15
v 3.4202 9.39693 15
v 0 15 15
v 0 15 -15
v 0 10 -15
v 0 10 15
v -5.1303 14.0954 15
v -5.1303 14.0954 -15
v -3.4202 9.39693 -15
v -3.4202 9.39693 15
v -9.64182 11.4907 15
v -9.64182 11.4907 -15
v -6.42788 7.66045 -15
v -6.42788 7.66044 15
v -12.9904 7.5 15
v -12.9904 7.5 -15
v -8.66026 5 -15
v -8.66026 5 15
v -14.7721 2.60472 15
v -14.7721 2.60472 -15
v -9.84808 1.73648 -15
v -9.84808 1.73648 15
v -14.7721 -2.60473 15
v -14.7721 -2.60472 -15
v -9.84808 -1.73648 -15
v -9.84808 -1.73648 15
v -12.9904 -7.5 15
v -12.9904 -7.5 -15
v -8.66025 -5 -15
v -8.66025 -5 15
v -9.64181 -11.4907 15
v -9.64181 -11.4907 -15
v -6.42787 -7.66044 -15
v -6.42787 -7.66045 15
v -5.1303 -14.0954 15
v -5.1303 -14.0954 -15
v -3.4202 -9.39692 -15
v -3.4202 -9.39693 15
v 0 -15 -15
v 5.1303 -14.0954 -15
v 0 -15 -15
v 0 -10 -15
v 3.4202 -9.39692 -15
v 0 -10 -15
v 0 -10 15
v 5.1303 -14.0954 15
v 3.4202 -9.39693 15
v 0 -10 15
v 0 -15 15
v 5.1303 -14.0954 15
v 5.1303 -14.0954 -15
v 9.64181 -11.4907 -15
v 5.1303 -14.0954 -15
v 3.4202 -9.39692 -15
v 6.42788 -7.66044 -15
v 3.4202 -9.39692 -15
v 3.4202 -9.39693 15
v 9.64181 -11.4907 15
v 6.42788 -7.66044 15
v 3.4202 -9.39693 15
v 5.1303 -14.0954 15
v 9.64181 -11.4907 15
v 9.64181 -11.4907 15
v 9.64181 -11.4907 15
v 9.64181 -11.4907 -15
v 9.64181 -11.4907 -15
v 12.9904 -7.5 -15
v 9.64181 -11.4907 -15
v 6.42788 -7.66044 -15
v 8.66025 -5 -15
v 6.42788 -7.66044 -15
v 6.42788 -7.66044 15
v 6.42788 -7.66044 15
v 12.9904 -7.5 15
v 8.66025 -5 15
v 6.42788 -7.66044 15
v 9.64181 -11.4907 15
v 12.9904 -7.5 15
v 12.9904 -7.5 -15
v 14.7721 -2.60472 -15
v 12.9904 -7.5 -15
v 8.66025 -5 -15
v 9.84808 -1.73648 -15
v 8.66025 -5 -15
v 8.66025 -5 15
v 14.7721 -2.60472 15
v 9.84808 -1.73648 15
v 8.66025 -5 15
v 12.9904 -7.5 15
v 14.7721 -2.60472 15
v 14.7721 -2.60472 -15
v 14.7721 2.60473 -15
v 14.7721 -2.60472 -15
v 9.84808 -1.73648 -15
v 9.84808 1.73648 -15
v 9.84808 -1.73648 -15
v 9.84808 -1.73648 15
v 14.7721 2.60472 15
v 9.84808 1.73648 15
v 9.84808 -1.73648 15
v 14.7721 -2.60472 15
v 14.7721 2.60472 15
v 14.7721 2.60473 -15
v 12.9904 7.5 -15
v 14.7721 2.60473 -15
v 9.84808 1.73648 -15
v 8.66025 5 -15
v 9.84808 1.73648 -15
v 9.84808 1.73648 15
v 12.9904 7.5 15
v 8.66025 5 15
v 9.84808 1.73648 15
v 14.7721 2.60472 15
v 12.9904 7.5 15
v 12.9904 7.5 -15
v 9.64181 11.4907 -15
v 12.9904 7.5 -15
v 8.66025 5 -15
v 6.42788 7.66045 -15
v 8.66025 5 -15
v 8.66025 5 15
v 9.64181 11.4907 15
v 6.42788 7.66045 15
v 8.66025 5 15
v 12.9904 7.5 15
v 9.64181 11.4907 15
v 9.64181 11.4907 15
v 9.64181 11.4907 15
v 9.64181 11.4907 -15
v 9.64181 11.4907 -15
v 5.1303 14.0954 -15
v 9.64181 11.4907 -15
v 6.42788 7.66045 -15
v 3.4202 9.39693 -15
v 6.42788 7.66045 -15
v 6.42788 7.66045 15
v 6.42788 7.66045 15
v 5.1303 14.0954 15
v 3.4202 9.39693 15
v 6.42788 7.66045 15
v 9.64181 11.4907 15
v 5.1303 14.0954 15
v 5.1303 14.0954 -15
v 0 15 -15
v 5.1303 14.0954 -15
v 3.4202 9.39693 -15
v 0 10 -15
v 3.4202 9.39693 -15
v 3.4202 9.39693 15
v 0 15 15
v 0 10 15
v 3.4202 9.39693 15
v 5.1303 14.0954 15
v 0 15 15
v 0 15 -15
v -5.1303 14.0954 -15
v 0 15 -15
v 0 10 -15
v -3.4202 9.39693 -15
v 0 10 -15
v 0 10 15
v -5.1303 14.0954 15
v -3.4202 9.39693 15
v 0 10 15
v 0 15 15
v -5.1303 14.0954 15
v -5.1303 14.0954 -15
v -9.64182 11.4907 -15
v -5.1303 14.0954 -15
v -3.4202 9.39693 -15
v -6.42788 7.66045 -15
v -3.4202 9.39693 -15
v -3.4202 9.39693 15
v -9.64182 11.4907 15
v -6.42788 7.66044 15
v -3.4202 9.39693 15
v -5.1303 14.0954 15
v -9.64182 11.4907 15
v -9.64182 11.4907 15
v -9.64182 11.4907 15
v -9.64182 11.4907 -15
v -9.64182 11.4907 -15
v -12.9904 7.5 -15
v -9.64182 11.4907 -15
v -6.42788 7.66045 -15
v -8.66026 5 -15
v -6.42788 7.66045 -15
v -6.42788 7.66044 15
v -6.42788 7.66044 15
v -12.9904 7.5 15
v -8.66026 5 15
v -6.42788 7.66044 15
v -9.64182 11.4907 15
v -12.9904 7.5 15
v -12.9904 7.5 -15
v -14.7721 2.60472 -15
v -12.9904 7.5 -15
v -8.66026 5 -15
v -9.84808 1.73648 -15
v -8.66026 5 -15
v -8.66026 5 15
v -14.7721 2.60472 15
v -9.84808 1.73648 15
v -8.66026 5 15
v -12.9904 7.5 15
v -14.7721 2.60472 15
v -14.7721 2.60472 -15
v -14.7721 -2.60472 -15
v -14.7721 2.60472 -15
v -9.84808 1.73648 -15
v -9.84808 -1.73648 -15
v -9.84808 1.73648 -15
v -9.84808 1.73648 15
v -14.7721 -2.60473 15
v -9.84808 -1.73648 15
v -9.84808 1.73648 15
v -14.7721 2.60472 15
v -14.7721 -2.60473 15
v -14.7721 -2.60472 -15
v -12.9904 -7.5 -15
v -14.7721 -2.60472 -15
v -9.84808 -1.73648 -15
v -8.66025 -5 -15
v -9.84808 -1.73648 -15
v -9.84808 -1.73648 15
v -12.9904 -7.5 15
v -8.66025 -5 15
v -9.84808 -1.73648 15
v -14.7721 -2.60473 15
v -12.9904 -7.5 15
v -12.9904 -7.5 -15
v -9.64181 -11.4907 -15
v -12.9904 -7.5 -15
v -8.66025 -5 -15
v -6.42787 -7.66044 -15
v -8.66025 -5 -15
v -8.66025 -5 15
v -9.64181 -11.4907 15
v -6.42787 -7.66045 15
v -8.66025 -5 15
v -12.9904 -7.5 15
v -9.64181 -11.4907 15
v -9.64181 -11.4907 15
v -9.64181 -11.4907 15
v -9.64181 -11.4907 -15
v -9.64181 -11.4907 -15
v -5.1303 -14.0954 -15
v -9.64181 -11.4907 -15
v -6.42787 -7.66044 -15
v -3.4202 -9.39692 -15
v -6.42787 -7.66044 -15
v -6.42787 -7.66045 15
v -6.42787 -7.66045 15
v -5.1303 -14.0954 15
v -3.4202 -9.39693 15
v -6.42787 -7.66045 15
v -9.64181 -11.4907 15
v -5.1303 -14.0954 15
v -5.1303 -14.0954 -15
v 0 -15 -15
v -5.1303 -14.0954 -15
v -3.4202 -9.39692 -15
v 0 -10 -15
v -3.4202 -9.39692 -15
v -3.4202 -9.39693 15
v 0 -15 15
v 0 -10 15
v -3.4202 -9.39693 15
v -5.1303 -14.0954 15
v 0 -15 15

# No. normals 520:
vn 0.17365 -0.98481 0
vn 0.17365 -0.98481 0
vn 0 0 -1
vn 0 0 -1
vn -0.17365 0.98481 0
vn -0.17365 0.98481 0
vn 0 0 1
vn 0 0 1
vn 0.50000 -0.86603 0
vn 0.50000 -0.86603 0
vn 0 0 -1
vn 0 0 -1
vn -0.50000 0.86603 0
vn -0.50000 0.86603 0
vn 0 0 1
vn 0 0 1
vn 0.76604 -0.64279 0
vn 0.76604 -0.64279 0
vn 0 0 -1
vn 0 0 -1
vn -0.76604 0.64279 0
vn -0.76604 0.64279 0
vn 0 0 1
vn 0 0 1
vn 0.93969 -0.34202 0
vn 0.93969 -0.34202 0
vn 0 0 -1
vn 0 0 -1
vn -0.93969 0.34202 0
vn -0.93969 0.34202 0
vn 0 0 1
vn 0 0 1
vn 1 0 0
vn 1 0 0
vn 0 0 -1
vn 0 0 -1
vn -1 0 0
vn -1 0 0
vn 0 0 1
vn 0 0 1
vn 0.93969 0.34202 0
vn 0.93969 0.34202 0
vn 0 0 -1
vn 0 0 -1
vn -0.93969 -0.34202 0
vn -0.93969 -0.34202 0
vn 0 0 1
vn 0 0 1
vn 0.76604 0.64279 0
vn 0.76604 0.64279 0
vn 0 0 -1
vn 0 0 -1
vn -0.76604 -0.64279 0
vn -0.76604 -0.64279 0
vn 0 0 1
vn 0 0 1
vn 0.50000 0.86603 0
vn 0.50000 0.86603 0
vn 0 0 -1
vn 0 0 -1
vn -0.50000 -0.86603 0
vn -0.50000 -0.86603 0
vn 0 0 1
vn 0 0 1
vn 0.17365 0.98481 0
vn 0.17365 0.98481 0
vn 0 0 -1
vn 0 0 -1
vn -0.17365 -0.98481 0
vn -0.17365 -0.98481 0
vn 0 0 1
vn 0 0 1
vn -0.17365 0.98481 0
vn -0.17365 0.98481 0
vn 0 0 -1
vn 0 0 -1
vn 0.17365 -0.98481 0
vn 0.17365 -0.98481 0
vn 0 0 1
vn 0 0 1
vn -0.50000 0.86603 0
vn -0.50000 0.86603 0
vn 0 0 -1
vn 0 0 -1
vn 0.50000 -0.86603 0
vn 0.50000 -0.86603 0
vn 0 0 1
vn 0 0 1
vn -0.76604 0.64279 0
vn -0.76604 0.64279 0
vn 0 0 -1
vn 0 0 -1
vn 0.76604 -0.64279 0
vn 0.76604 -0.64279 0
vn 0 0 1
vn 0 0 1
vn -0.93969 0.34202 0
vn -0.93969 0.34202 0
vn 0 0 -1
vn 0 0 -1
vn 0.93969 -0.34202 0
vn 0.93969 -0.34202 0
vn 0 0 1
vn 0 0 1
vn -1 0 0
vn -1 0 0
vn 0 0 -1
vn 0 0 -1
vn 1 0 0
vn 1 0 0
vn 0 0 1
vn 0 0 1
vn -0.93969 -0.34202 0
vn -0.93969 -0.34202 0
vn 0 0 -1
vn 0 0 -1
vn 0.93969 0.34202 0
vn 0.93969 0.34202 0
vn 0 0 1
vn 0 0 1
vn -0.76604 -0.64279 0
vn -0.76604 -0.64279 0
vn 0 0 -1
vn 0 0 -1
vn 0.76604 0.64279 0
vn 0.76604 0.64279 0
vn 0 0 1
vn 0 0 1
vn -0.50000 -0.86603 0
vn -0.50000 -0.86603 0
vn 0 0 -1
vn 0 0 -1
vn 0.50000 0.86603 0
vn 0.50000 0.86603 0
vn 0 0 1
vn 0 0 1
vn -0.17365 -0.98481 0
vn -0.17365 -0.98481 0
vn 0 0 -1
vn 0 0 -1
vn 0.17365 0.98481 0
vn 0.17365 0.98481 0
vn 0 0 1
vn 0 0 1
vn 0.05867 -0.99828 0
vn -0.05867 -0.99828 0
vn 0 0 -1
vn 0 0 -1
vn 0 0 -1
vn -0.17365 0.98481 0
vn 0.17365 0.98481 0
vn 0.17365 0.98481 0
vn 0.39657 -0.91801 0
vn 0.28629 -0.95814 0
vn 0 0 -1
vn 0 0 -1
vn 0 0 -1
vn -0.17365 0.98481 0
vn -0.50000 0.86603 0
vn -0.17365 0.98481 0
vn 0.50000 -0.86603 0
vn 0.50000 -0.86603 0
vn 0 0 -1
vn 0 0 -1
vn 0 0 -1
vn -0.50000 0.86603 0
vn -0.50000 0.86603 0
vn 0.89387 -0.44832 0
vn 0.86603 -0.50000 0
vn 0.76604 -0.64279 0
vn 0 0 -1
vn 0 0 -1
vn 0 0 -1
vn -0.76604 0.64279 0
vn -0.93969 0.34202 0
vn -0.76604 0.64279 0
vn 0.99330 -0.11557 0
vn 0.97292 -0.23113 0
vn 0 0 -1
vn 0 0 -1
vn 0 0 -1
vn -0.93969 0.34202 0
vn -1 0 0
vn -0.93969 0.34202 0
vn 0.97292 0.23113 0
vn 0.99330 0.11557 0
vn 0 0 -1
vn 0 0 -1
vn 0 0 -1
vn -1 0 0
vn -0.93969 -0.34202 0
vn -1 0 0
vn 0.83520 0.54995 0
vn 0.89387 0.44833 0
vn 0 0 -1
vn 0 0 -1
vn 0 0 -1
vn -0.93969 -0.34202 0
vn -0.76604 -0.64279 0
vn -0.93969 -0.34202 0
vn 0.76604 0.64279 0
vn 0.76604 0.64279 0
vn 0 0 -1
vn 0 0 -1
vn 0 0 -1
vn -0.76604 -0.64279 0
vn -0.76604 -0.64279 0
vn 0.28629 0.95814 0
vn 0.34202 0.93969 0
vn 0.50000 0.86603 0
vn 0 0 -1
vn 0 0 -1
vn 0 0 -1
vn -0.50000 -0.86603 0
vn -0.17365 -0.98481 0
vn -0.50000 -0.86603 0
vn -0.05867 0.99828 0
vn 0.05867 0.99828 0
vn 0 0 -1
vn 0 0 -1
vn 0 0 -1
vn -0.17365 -0.98481 0
vn 0.17365 -0.98481 0
vn -0.17365 -0.98481 0
vn -0.39657 0.91801 0
vn -0.28630 0.95814 0
vn 0 0 -1
vn 0 0 -1
vn 0 0 -1
vn 0.17365 -0.98481 0
vn 0.50000 -0.86603 0
vn 0.17365 -0.98481 0
vn -0.50000 0.86603 0
vn -0.50000 0.86603 0
vn 0 0 -1
vn 0 0 -1
vn 0 0 -1
vn 0.50000 -0.86603 0
vn 0.50000 -0.86603 0
vn -0.89387 0.44832 0
vn -0.86603 0.50000 0
vn -0.76604 0.64279 0
vn 0 0 -1
vn 0 0 -1
vn 0 0 -1
vn 0.76604 -0.64279 0
vn 0.93969 -0.34202 0
vn 0.76604 -0.64279 0
vn -0.99330 0.11557 0
vn -0.97292 0.23113 0
vn 0 0 -1
vn 0 0 -1
vn 0 0 -1
vn 0.93969 -0.34202 0
vn 1 0 0
vn 0.93969 -0.34202 0
vn -0.97292 -0.23113 0
vn -0.99330 -0.11557 0
vn 0 0 -1
vn 0 0 -1
vn 0 0 -1
vn 1 0 0
vn 0.93969 0.34202 0
vn 1 0 0
vn -0.83520 -0.54995 0
vn -0.89387 -0.44833 0
vn 0 0 -1
vn 0 0 -1
vn 0 0 -1
vn 0.93969 0.34202 0
vn 0.76604 0.64279 0
vn 0.93969 0.34202 0
vn -0.76604 -0.64279 0
vn -0.76604 -0.64279 0
vn 0 0 -1
vn 0 0 -1
vn 0 0 -1
vn 0.76604 0.64279 0
vn 0.76604 0.64279 0
vn -0.28629 -0.95814 0
vn -0.34202 -0.93969 0
vn -0.50000 -0.86603 0
vn 0 0 -1
vn 0 0 -1
vn 0 0 -1
vn 0.50000 0.86603 0
vn 0.17365 0.98481 0
vn 0.50000 0.86603 0
vn 0 0 -1
vn 0 0 -1
vn 0 0 -1
vn -0.17365 0.98481 0
vn -0.17365 0.98481 0
vn -0.17365 0.98481 0
vn 0 0 1
vn 0 0 1
vn 0 0 1
vn 0 0 1
vn 0 0 1
vn 0 0 1
vn 0 0 -1
vn 0 0 -1
vn 0 0 -1
vn -0.50000 0.86603 0
vn -0.50000 0.86603 0
vn -0.50000 0.86603 0
vn 0 0 1
vn 0 0 1
vn 0 0 1
vn 0 0 1
vn 0 0 1
vn 0 0 1
vn 0.76604 -0.64279 0
vn 0.76604 -0.64279 0
vn 0.76604 -0.64279 0
vn 0 0 -1
vn 0 0 -1
vn 0 0 -1
vn -0.76604 0.64279 0
vn -0.76604 0.64279 0
vn -0.76604 0.64279 0
vn -0.76604 0.64279 0
vn 0 0 1
vn 0 0 1
vn 0 0 1
vn 0 0 1
vn 0 0 1
vn 0 0 1
vn 0 0 -1
vn 0 0 -1
vn 0 0 -1
vn -0.93969 0.34202 0
vn -0.93969 0.34202 0
vn -0.93969 0.34202 0
vn 0 0 1
vn 0 0 1
vn 0 0 1
vn 0 0 1
vn 0 0 1
vn 0 0 1
vn 0 0 -1
vn 0 0 -1
vn 0 0 -1
vn -1 0 0
vn -1 0 0
vn -1 0 0
vn 0 0 1
vn 0 0 1
vn 0 0 1
vn 0 0 1
vn 0 0 1
vn 0 0 1
vn 0 0 -1
vn 0 0 -1
vn 0 0 -1
vn -0.93969 -0.34202 0
vn -0.93969 -0.34202 0
vn -0.93969 -0.34202 0
vn 0 0 1
vn 0 0 1
vn 0 0 1
vn 0 0 1
vn 0 0 1
vn 0 0 1
vn 0 0 -1
vn 0 0 -1
vn 0 0 -1
vn -0.76604 -0.64279 0
vn -0.76604 -0.64279 0
vn -0.76604 -0.64279 0
vn 0 0 1
vn 0 0 1
vn 0 0 1
vn 0 0 1
vn 0 0 1
vn 0 0 1
vn 0.50000 0.86603 0
vn 0.50000 0.86603 0
vn 0.50000 0.86603 0
vn 0 0 -1
vn 0 0 -1
vn 0 0 -1
vn -0.50000 -0.86603 0
vn -0.50000 -0.86603 0
vn -0.50000 -0.86603 0
vn -0.50000 -0.86603 0
vn 0 0 1
vn 0 0 1
vn 0 0 1
vn 0 0 1
vn 0 0 1
vn 0 0 1
vn 0 0 -1
vn 0 0 -1
vn 0 0 -1
vn -0.17365 -0.98481 0
vn -0.17365 -0.98481 0
vn -0.17365 -0.98481 0
vn 0 0 1
vn 0 0 1
vn 0 0 1
vn 0 0 1
vn 0 0 1
vn 0 0 1
vn 0 0 -1
vn 0 0 -1
vn 0 0 -1
vn 0.17365 -0.98481 0
vn 0.17365 -0.98481 0
vn 0.17365 -0.98481 0
vn 0 0 1
vn 0 0 1
vn 0 0 1
vn 0 0 1
vn 0 0 1
vn 0 0 1
vn 0 0 -1
vn 0 0 -1
vn 0 0 -1
vn 0.50000 -0.86603 0
vn 0.50000 -0.86603 0
vn 0.50000 -0.86603 0
vn 0 0 1
vn 0 0 1
vn 0 0 1
vn 0 0 1
vn 0 0 1
vn 0 0 1
vn -0.76604 0.64279 0
vn -0.76604 0.64279 0
vn -0.76604 0.64279 0
vn 0 0 -1
vn 0 0 -1
vn 0 0 -1
vn 0.76604 -0.64279 0
vn 0.76604 -0.64279 0
vn 0.76604 -0.64279 0
vn 0.76604 -0.64279 0
vn 0 0 1
vn 0 0 1
vn 0 0 1
vn 0 0 1
vn 0 0 1
vn 0 0 1
vn 0 0 -1
vn 0 0 -1
vn 0 0 -1
vn 0.93969 -0.34202 0
vn 0.93969 -0.34202 0
vn 0.93969 -0.34202 0
vn 0 0 1
vn 0 0 1
vn 0 0 1
vn 0 0 1
vn 0 0 1
vn 0 0 1
vn 0 0 -1
vn 0 0 -1
vn 0 0 -1
vn 1 0 0
vn 1 0 0
vn 1 0 0
vn 0 0 1
vn 0 0 1
vn 0 0 1
vn 0 0 1
vn 0 0 1
vn 0 0 1
vn 0 0 -1
vn 0 0 -1
vn 0 0 -1
vn 0.93969 0.34202 0
vn 0.93969 0.34202 0
vn 0.93969 0.34202 0
vn 0 0 1
vn 0 0 1
vn 0 0 1
vn 0 0 1
vn 0 0 1
vn 0 0 1
vn 0 0 -1
vn 0 0 -1
vn 0 0 -1
vn 0.76604 0.64279 0
vn 0.76604 0.64279 0
vn 0.76604 0.64279 0
vn 0 0 1
vn 0 0 1
vn 0 0 1
vn 0 0 1
vn 0 0 1
vn 0 0 1
vn -0.50000 -0.86603 0
vn -0.50000 -0.86603 0
vn -0.50000 -0.86603 0
vn 0 0 -1
vn 0 0 -1
vn 0 0 -1
vn 0.50000 0.86603 0
vn 0.50000 0.86603 0
vn 0.50000 0.86603 0
vn 0.50000 0.86603 0
vn 0 0 1
vn 0 0 1
vn 0 0 1
vn 0 0 1
vn 0 0 1
vn 0 0 1
vn 0 0 -1
vn 0 0 -1
vn 0 0 -1
vn 0.17365 0.98481 0
vn 0.17365 0.98481 0
vn 0.17365 0.98481 0
vn 0 0 1
vn 0 0 1
vn 0 0 1
vn 0 0 1
vn 0 0 1
vn 0 0 1

# No. texture coordinates 304:
vt 0.50000 0.00050
vt 0.50000 0.999501
vt 0.50000 0.83300
vt 0.50000 0.00050
vt 0.32916 0.00050
vt 0.32916 0.999501
vt 0.61389 0.81292
vt 0.61389 0.00050
vt 0.17893 0.00050
vt 0.17893 0.999501
vt 0.71405 0.75509
vt 0.71405 0.00050
vt 0.74975 0.00050
vt 0.74975 0.999501
vt 0.78839 0.66650
vt 0.33350 0.00050
vt 0.58674 0.00050
vt 0.58674 0.999501
vt 0.82794 0.55782
vt 0.44218 0.00050
vt 0.41326 0.00050
vt 0.41326 0.999501
vt 0.82794 0.44218
vt 0.55782 0.00050
vt 0.25025 0.00050
vt 0.25025 0.999501
vt 0.78839 0.33350
vt 0.66650 0.00050
vt 0.11736 0.00050
vt 0.11736 0.999501
vt 0.71405 0.24491
vt 0.75509 0.00050
vt 0.67084 0.00050
vt 0.67084 0.999501
vt 0.61389 0.18708
vt 0.38611 0.00050
vt 0.50000 0.00050
vt 0.50000 0.999501
vt 0.50000 0.16700
vt 0.50000 0.00050
vt 0.32916 0.00050
vt 0.32916 0.999501
vt 0.38611 0.18708
vt 0.61389 0.00050
vt 0.17893 0.00050
vt 0.17893 0.999501
vt 0.28595 0.24491
vt 0.71405 0.00050
vt 0.74975 0.00050
vt 0.74975 0.999501
vt 0.21161 0.33350
vt 0.33350 0.00050
vt 0.58674 0.00050
vt 0.58674 0.999501
vt 0.17206 0.44218
vt 0.44218 0.00050
vt 0.41326 0.00050
vt 0.41326 0.999501
vt 0.17206 0.55783
vt 0.55783 0.00050
vt 0.25025 0.00050
vt 0.25025 0.999501
vt 0.21161 0.66650
vt 0.66650 0.00050
vt 0.11736 0.00050
vt 0.11736 0.999501
vt 0.28595 0.75509
vt 0.75509 0.00050
vt 0.67084 0.00050
vt 0.67084 0.999501
vt 0.38611 0.81292
vt 0.38611 0.00050
vt 0.50000 0.9995
vt 0.67084 0.96938
vt 0.50000 0.9995
vt 0.50000 0.999501
vt 0.61389 0.999501
vt 0.50000 0.999501
vt 0.50000 0.83300
vt 0.32916 0.96938
vt 0.38611 0.81292
vt 0.50000 0.83300
vt 0.50000 0.9995
vt 0.32916 0.96938
vt 0.67084 0.96938
vt 0.82107 0.88264
vt 0.67084 0.96938
vt 0.61389 0.999501
vt 0.71405 0.999501
vt 0.61389 0.999501
vt 0.38611 0.81292
vt 0.17893 0.88264
vt 0.28595 0.75509
vt 0.38611 0.81292
vt 0.32916 0.96938
vt 0.17893 0.88264
vt 0.88264 0.00050
vt 0.88264 0.00050
vt 0.88264 0.999501
vt 0.82107 0.88264
vt 0.93258 0.74975
vt 0.82107 0.88264
vt 0.24491 0.999501
vt 0.33350 0.999501
vt 0.24491 0.999501
vt 0.24491 0.00050
vt 0.28595 0.75509
vt 0.06742 0.74975
vt 0.21161 0.66650
vt 0.28595 0.75509
vt 0.17893 0.88264
vt 0.06742 0.74975
vt 0.93258 0.74975
vt 0.99191 0.58674
vt 0.93258 0.74975
vt 0.33350 0.999501
vt 0.44218 0.999501
vt 0.33350 0.999501
vt 0.21161 0.66650
vt 0.00809 0.58674
vt 0.17206 0.55782
vt 0.21161 0.66650
vt 0.06742 0.74975
vt 0.00809 0.58674
vt 0.99191 0.58674
vt 0.99191 0.41326
vt 0.99191 0.58674
vt 0.44218 0.999501
vt 0.55782 0.999501
vt 0.44218 0.999501
vt 0.17206 0.55782
vt 0.00809 0.41326
vt 0.17206 0.44218
vt 0.17206 0.55782
vt 0.00809 0.58674
vt 0.00809 0.41326
vt 0.99191 0.41326
vt 0.93258 0.25025
vt 0.99191 0.41326
vt 0.55782 0.999501
vt 0.66650 0.999501
vt 0.55782 0.999501
vt 0.17206 0.44218
vt 0.06742 0.25025
vt 0.21161 0.33350
vt 0.17206 0.44218
vt 0.00809 0.41326
vt 0.06742 0.25025
vt 0.93258 0.25025
vt 0.82107 0.11736
vt 0.93258 0.25025
vt 0.66650 0.999501
vt 0.75509 0.999501
vt 0.66650 0.999501
vt 0.21161 0.33350
vt 0.17893 0.11736
vt 0.28595 0.24491
vt 0.21161 0.33350
vt 0.06742 0.25025
vt 0.17893 0.11736
vt 0.82107 0.00050
vt 0.82107 0.00050
vt 0.82107 0.999501
vt 0.82107 0.11736
vt 0.67084 0.03062
vt 0.82107 0.11736
vt 0.28595 0.999501
vt 0.38611 0.999501
vt 0.28595 0.999501
vt 0.28595 0.00050
vt 0.28595 0.24491
vt 0.32916 0.03062
vt 0.38611 0.18708
vt 0.28595 0.24491
vt 0.17893 0.11736
vt 0.32916 0.03062
vt 0.67084 0.03062
vt 0.50000 0.00050
vt 0.67084 0.03062
vt 0.38611 0.999501
vt 0.50000 0.999501
vt 0.38611 0.999501
vt 0.38611 0.18708
vt 0.50000 0.00050
vt 0.50000 0.16700
vt 0.38611 0.18708
vt 0.32916 0.03062
vt 0.50000 0.00050
vt 0.50000 0.00050
vt 0.32916 0.03062
vt 0.50000 0.00050
vt 0.50000 0.999501
vt 0.61389 0.999501
vt 0.50000 0.999501
vt 0.50000 0.16700
vt 0.67084 0.03062
vt 0.61389 0.18708
vt 0.50000 0.16700
vt 0.50000 0.00050
vt 0.67084 0.03062
vt 0.32916 0.03062
vt 0.17893 0.11736
vt 0.32916 0.03062
vt 0.61389 0.999501
vt 0.71405 0.999501
vt 0.61389 0.999501
vt 0.61389 0.18708
vt 0.82107 0.11736
vt 0.71405 0.24491
vt 0.61389 0.18708
vt 0.67084 0.03062
vt 0.82107 0.11736
vt 0.88264 0.00050
vt 0.88264 0.00050
vt 0.88264 0.999501
vt 0.17893 0.11736
vt 0.06742 0.25025
vt 0.17893 0.11736
vt 0.24491 0.999501
vt 0.33350 0.999501
vt 0.24491 0.999501
vt 0.24491 0.00050
vt 0.71405 0.24491
vt 0.93258 0.25025
vt 0.78839 0.33350
vt 0.71405 0.24491
vt 0.82107 0.11736
vt 0.93258 0.25025
vt 0.06742 0.25025
vt 0.00809 0.41326
vt 0.06742 0.25025
vt 0.33350 0.999501
vt 0.44218 0.999501
vt 0.33350 0.999501
vt 0.78839 0.33350
vt 0.99191 0.41326
vt 0.82794 0.44218
vt 0.78839 0.33350
vt 0.93258 0.25025
vt 0.99191 0.41326
vt 0.00809 0.41326
vt 0.00809 0.58674
vt 0.00809 0.41326
vt 0.44218 0.999501
vt 0.55783 0.999501
vt 0.44218 0.999501
vt 0.82794 0.44218
vt 0.99191 0.58674
vt 0.82794 0.55783
vt 0.82794 0.44218
vt 0.99191 0.41326
vt 0.99191 0.58674
vt 0.00809 0.58674
vt 0.06742 0.74975
vt 0.00809 0.58674
vt 0.55783 0.999501
vt 0.66650 0.999501
vt 0.55783 0.999501
vt 0.82794 0.55783
vt 0.93258 0.74975
vt 0.78839 0.66650
vt 0.82794 0.55783
vt 0.99191 0.58674
vt 0.93258 0.74975
vt 0.06742 0.74975
vt 0.17893 0.88264
vt 0.06742 0.74975
vt 0.66650 0.999501
vt 0.75509 0.999501
vt 0.66650 0.999501
vt 0.78839 0.66650
vt 0.82107 0.88264
vt 0.71405 0.75509
vt 0.78839 0.66650
vt 0.93258 0.74975
vt 0.82107 0.88264
vt 0.82107 0.00050
vt 0.82107 0.00050
vt 0.82107 0.999501
vt 0.17893 0.88264
vt 0.32916 0.96938
vt 0.17893 0.88264
vt 0.28595 0.999501
vt 0.38611 0.999501
vt 0.28595 0.999501
vt 0.28595 0.00050
vt 0.71405 0.75509
vt 0.67084 0.96938
vt 0.61389 0.81292
vt 0.71405 0.75509
vt 0.82107 0.88264
vt 0.67084 0.96938
vt 0.32916 0.96938
vt 0.50000 0.9995
vt 0.32916 0.96938
vt 0.38611 0.999501
vt 0.50000 0.999501
vt 0.38611 0.999501
vt 0.61389 0.81292
vt 0.50000 0.9995
vt 0.50000 0.83300
vt 0.61389 0.81292
vt 0.67084 0.96938
vt 0.50000 0.9995

# No. faces 144:
f 1/1/145 6/6/154 5/5/153
f 1/1/145 2/2/146 6/6/154
f 73/73/289 7/7/155 74/74/290
f 75/75/291 3/3/147 7/7/157
f 76/76/292 8/8/158 77/77/293
f 78/78/294 4/4/150 8/8/160
f 79/79/295 80/80/296 81/81/297
f 82/82/298 83/83/299 84/84/300
f 5/5/153 10/10/162 9/9/161
f 5/5/153 6/6/154 10/10/162
f 85/85/301 11/11/163 86/86/302
f 87/87/303 7/7/156 11/11/165
f 88/88/304 12/12/166 89/89/305
f 90/90/306 8/8/159 12/12/167
f 91/91/307 92/92/308 93/93/309
f 94/94/310 95/95/311 96/96/312
f 97/97/313 14/14/169 13/13/168
f 98/98/314 99/99/315 14/14/170
f 100/100/316 15/15/171 101/101/317
f 102/102/318 11/11/164 15/15/173
f 103/103/319 16/16/174 104/104/320
f 105/105/321 106/106/322 16/16/176
f 107/107/323 108/108/324 109/109/325
f 110/110/326 111/111/327 112/112/328
f 13/13/168 18/18/178 17/17/177
f 13/13/168 14/14/169 18/18/178
f 113/113/329 19/19/179 114/114/330
f 115/115/331 15/15/172 19/19/181
f 116/116/332 20/20/182 117/117/333
f 118/118/334 16/16/175 20/20/184
f 119/119/335 120/120/336 121/121/337
f 122/122/338 123/123/339 124/124/340
f 17/17/177 22/22/186 21/21/185
f 17/17/177 18/18/178 22/22/186
f 125/125/341 23/23/187 126/126/342
f 127/127/343 19/19/180 23/23/189
f 128/128/344 24/24/190 129/129/345
f 130/130/346 20/20/183 24/24/192
f 131/131/347 132/132/348 133/133/349
f 134/134/350 135/135/351 136/136/352
f 21/21/185 26/26/194 25/25/193
f 21/21/185 22/22/186 26/26/194
f 137/137/353 27/27/195 138/138/354
f 139/139/355 23/23/188 27/27/197
f 140/140/356 28/28/198 141/141/357
f 142/142/358 24/24/191 28/28/200
f 143/143/359 144/144/360 145/145/361
f 146/146/362 147/147/363 148/148/364
f 25/25/193 30/30/202 29/29/201
f 25/25/193 26/26/194 30/30/202
f 149/149/365 31/31/203 150/150/366
f 151/151/367 27/27/196 31/31/205
f 152/152/368 32/32/206 153/153/369
f 154/154/370 28/28/199 32/32/207
f 155/155/371 156/156/372 157/157/373
f 158/158/374 159/159/375 160/160/376
f 161/161/377 34/34/209 33/33/208
f 162/162/378 163/163/379 34/34/210
f 164/164/380 35/35/211 165/165/381
f 166/166/382 31/31/204 35/35/213
f 167/167/383 36/36/214 168/168/384
f 169/169/385 170/170/386 36/36/216
f 171/171/387 172/172/388 173/173/389
f 174/174/390 175/175/391 176/176/392
f 33/33/208 38/38/218 37/37/217
f 33/33/208 34/34/209 38/38/218
f 177/177/393 39/39/219 178/178/394
f 179/179/395 35/35/212 39/39/221
f 180/180/396 40/40/222 181/181/397
f 182/182/398 36/36/215 40/40/224
f 183/183/399 184/184/400 185/185/401
f 186/186/402 187/187/403 188/188/404
f 37/37/217 42/42/226 41/41/225
f 37/37/217 38/38/218 42/42/226
f 189/189/405 43/43/227 190/190/406
f 191/191/407 39/39/220 43/43/229
f 192/192/408 44/44/230 193/193/409
f 194/194/410 40/40/223 44/44/232
f 195/195/411 196/196/412 197/197/413
f 198/198/414 199/199/415 200/200/416
f 41/41/225 46/46/234 45/45/233
f 41/41/225 42/42/226 46/46/234
f 201/201/417 47/47/235 202/202/418
f 203/203/419 43/43/228 47/47/237
f 204/204/420 48/48/238 205/205/421
f 206/206/422 44/44/231 48/48/239
f 207/207/423 208/208/424 209/209/425
f 210/210/426 211/211/427 212/212/428
f 213/213/429 50/50/241 49/49/240
f 214/214/430 215/215/431 50/50/242
f 216/216/432 51/51/243 217/217/433
f 218/218/434 47/47/236 51/51/245
f 219/219/435 52/52/246 220/220/436
f 221/221/437 222/222/438 52/52/248
f 223/223/439 224/224/440 225/225/441
f 226/226/442 227/227/443 228/228/444
f 49/49/240 54/54/250 53/53/249
f 49/49/240 50/50/241 54/54/250
f 229/229/445 55/55/251 230/230/446
f 231/231/447 51/51/244 55/55/253
f 232/232/448 56/56/254 233/233/449
f 234/234/450 52/52/247 56/56/256
f 235/235/451 236/236/452 237/237/453
f 238/238/454 239/239/455 240/240/456
f 53/53/249 58/58/258 57/57/257
f 53/53/249 54/54/250 58/58/258
f 241/241/457 59/59/259 242/242/458
f 243/243/459 55/55/252 59/59/261
f 244/244/460 60/60/262 245/245/461
f 246/246/462 56/56/255 60/60/264
f 247/247/463 248/248/464 249/249/465
f 250/250/466 251/251/467 252/252/468
f 57/57/257 62/62/266 61/61/265
f 57/57/257 58/58/258 62/62/266
f 253/253/469 63/63/267 254/254/470
f 255/255/471 59/59/260 63/63/269
f 256/256/472 64/64/270 257/257/473
f 258/258/474 60/60/263 64/64/272
f 259/259/475 260/260/476 261/261/477
f 262/262/478 263/263/479 264/264/480
f 61/61/265 66/66/274 65/65/273
f 61/61/265 62/62/266 66/66/274
f 265/265/481 67/67/275 266/266/482
f 267/267/483 63/63/268 67/67/277
f 268/268/484 68/68/278 269/269/485
f 270/270/486 64/64/271 68/68/279
f 271/271/487 272/272/488 273/273/489
f 274/274/490 275/275/491 276/276/492
f 277/277/493 70/70/281 69/69/280
f 278/278/494 279/279/495 70/70/282
f 280/280/496 71/71/283 281/281/497
f 282/282/498 67/67/276 71/71/285
f 283/283/499 72/72/286 284/284/500
f 285/285/501 286/286/502 72/72/288
f 287/287/503 288/288/504 289/289/505
f 290/290/506 291/291/507 292/292/508
f 69/69/280 2/2/146 1/1/145
f 69/69/280 70/70/281 2/2/146
f 293/293/509 3/3/149 294/294/510
f 295/295/511 71/71/284 3/3/148
f 296/296/512 4/4/152 297/297/513
f 298/298/514 72/72/287 4/4/151
f 299/299/515 300/300/516 301/301/517
f 302/302/518 303/303/519 304/304/520


