# File created by Luuv tsx 1.1.5
# Created on: Tue Sep 05 20:33:31 2006 0x04ca6cb0
# Vertices: 17
# Texture vertices: 30
# Normals: 17
# Faces: 30

mtllib tree2.mtl
v 0.000000 15.798487 -0.000001
v 0.000000 5.978922 0.000000
v -3.362968 15.378725 -0.223030
v -1.268460 14.591767 3.208140
v 2.792632 14.287210 2.219678
v 2.857917 15.378755 -1.776472
v -0.463732 14.287210 -3.096277
v -4.202887 10.638704 -0.567327
v -2.364982 9.652298 4.141435
v 3.872317 10.638704 3.197220
v 3.450211 10.943478 -2.710551
v -0.873642 9.652295 -4.730536
v -3.034200 6.990188 -0.194598
v -1.122693 7.571770 2.825562
v 2.340338 6.990188 1.940891
v 2.569102 7.571770 -1.626026
v -0.752546 6.990188 -2.945831

vt 0.100000 1.000000
vt 0.300000 1.000000
vt 0.500000 1.000000
vt 0.700000 1.000000
vt 0.900000 1.000000
vt 1.100000 1.000000
vt 0.000000 0.750000
vt 0.200000 0.750000
vt 0.400000 0.750000
vt 0.600000 0.750000
vt 0.800000 0.750000
vt 1.000000 0.750000
vt 0.000000 0.500000
vt 0.200000 0.500000
vt 0.400000 0.500000
vt 0.600000 0.500000
vt 0.800000 0.500000
vt 1.000000 0.500000
vt 0.000000 0.250000
vt 0.200000 0.250000
vt 0.400000 0.250000
vt 0.600000 0.250000
vt 0.800000 0.250000
vt 1.000000 0.250000
vt 0.100000 0.000000
vt 0.300000 0.000000
vt 0.500000 0.000000
vt 0.700000 0.000000
vt 0.900000 0.000000
vt 1.100000 0.000000

vn 0.015549 0.999782 0.013927
vn 0.022253 -0.999582 0.018455
vn -0.602292 0.795256 -0.069377
vn -0.183686 0.745924 0.640200
vn 0.583494 0.662487 0.469730
vn 0.523358 0.788107 -0.324013
vn -0.176564 0.647441 -0.741381
vn -0.973941 -0.108118 -0.199373
vn -0.459224 -0.189553 0.867861
vn 0.799499 -0.061749 0.597485
vn 0.815614 -0.071235 -0.574194
vn -0.204656 -0.192742 -0.959670
vn -0.580676 -0.808696 -0.093949
vn -0.203697 -0.825909 0.525721
vn 0.492410 -0.795163 0.353903
vn 0.609875 -0.720746 -0.329511
vn -0.141809 -0.819658 -0.555024

mtllib tree2.mtl

g Default
s 1
usemtl Sphere,2
f 3/7/3 4/8/4 1/1/1
f 1/2/1 4/8/4 5/9/5
f 6/10/6 1/3/1 5/9/5
f 7/11/7 1/4/1 6/10/6
f 7/11/7 3/12/3 1/5/1
f 8/13/8 9/14/9 4/8/4
f 3/7/3 8/13/8 4/8/4
f 4/8/4 9/14/9 10/15/10
f 5/9/5 4/8/4 10/15/10
f 5/9/5 10/15/10 11/16/11
f 6/10/6 5/9/5 11/16/11
f 11/16/11 12/17/12 7/11/7
f 6/10/6 11/16/11 7/11/7
f 7/11/7 12/17/12 8/18/8
f 3/12/3 7/11/7 8/18/8
f 9/14/9 8/13/8 13/19/13
f 14/20/14 9/14/9 13/19/13
f 14/20/14 15/21/15 10/15/10
f 9/14/9 14/20/14 10/15/10
f 16/22/16 11/16/11 10/15/10
f 15/21/15 16/22/16 10/15/10
f 12/17/12 11/16/11 16/22/16
f 17/23/17 12/17/12 16/22/16
f 8/18/8 12/17/12 17/23/17
f 13/24/13 8/18/8 17/23/17
f 14/20/14 13/19/13 2/25/2
f 14/20/14 2/26/2 15/21/15
f 15/21/15 2/27/2 16/22/16
f 2/28/2 17/23/17 16/22/16
f 13/24/13 17/23/17 2/29/2

# The end.
